<svg width="24" height="22" viewBox="0 0 24 22" fill="none" xmlns="http://www.w3.org/2000/svg">
<path fill-rule="evenodd" clip-rule="evenodd" d="M22.2815 21.5C22.9859 21.5 23.5571 20.9727 23.5571 20.3225V1.34137C23.5571 0.690877 22.9858 0.163818 22.2815 0.163818H1.71856C1.01386 0.163818 0.442871 0.690957 0.442871 1.34137V20.3224C0.442871 20.9727 1.01386 21.4999 1.71856 21.4999L22.2815 21.5ZM16.3913 21.5V13.2375H19.3958L19.8456 10.0174H16.3912V7.96154C16.3912 7.02926 16.6716 6.39396 18.12 6.39396L19.9672 6.39316V3.51316C19.6477 3.47399 18.5511 3.38629 17.2755 3.38629C14.6122 3.38629 12.7888 4.88689 12.7888 7.64273V10.0174H9.77661V13.2375H12.7888V21.4999L16.3913 21.5Z" fill="#0F2E68"/>
</svg>
