<svg width="28" height="28" viewBox="0 0 28 28" fill="black" xmlns="http://www.w3.org/2000/svg">
<path d="M21.4445 12.8315C20.7656 13.8523 20.1408 14.7992 19.5066 15.7403C19.324 16.0116 19.5684 16.0398 19.7006 16.1059C20.5241 16.5152 21.3542 16.9119 22.1806 17.3163C23.3502 17.889 23.5984 18.8962 22.8338 19.9685C21.7346 21.5105 20.6306 23.0495 19.5322 24.5924C19.1253 25.1631 18.569 25.3994 17.9138 25.2467C17.2814 25.0999 16.883 24.6624 16.7403 23.9897C16.6376 23.5035 16.786 23.0991 17.0551 22.7219C17.754 21.7419 18.4472 20.757 19.1642 19.7916C19.3706 19.5135 19.3154 19.4115 19.0302 19.2773C17.7816 18.693 16.5416 18.0892 15.2987 17.4913C14.2099 16.9673 13.9218 16.0651 14.5057 14.984C15.3682 13.3885 16.2364 11.797 17.1321 10.1491C16.4864 10.0567 15.9045 10.2395 15.3168 10.2278C15.1799 10.2249 15.12 10.3776 15.0391 10.4738C14.5257 11.0892 14.015 11.7066 13.5034 12.324C12.9319 13.0133 12.194 13.1299 11.5921 12.6253C11.0015 12.1305 10.9787 11.3323 11.5388 10.6498C12.1189 9.94396 12.737 9.26729 13.2742 8.5284C13.7449 7.88188 14.3421 7.62521 15.1 7.59507C15.8893 7.56396 16.6785 7.49202 17.4659 7.41813C18.4149 7.32868 19.2841 7.52604 20.0781 8.07924C20.7057 8.51577 21.3437 8.93577 21.9837 9.35188C22.6589 9.79035 23.1572 10.3747 23.4719 11.1272C23.7077 11.691 23.9797 12.2403 24.1994 12.8101C24.3087 13.093 24.4428 13.1183 24.6986 13.0337C25.1931 12.8703 25.6961 12.7284 26.2001 12.601C26.9295 12.4163 27.6027 12.8062 27.8034 13.5081C28.0097 14.2295 27.6569 14.8663 26.8829 15.1016C25.931 15.3913 24.9734 15.6645 24.012 15.9192C23.315 16.104 22.7806 15.822 22.4696 15.1376C22.1368 14.4065 21.8164 13.6695 21.4445 12.8315Z"/>
<path d="M11.0291 25.2913C10.5489 25.2806 10.0982 25.0171 9.8034 24.5067C9.48485 23.9555 9.51813 23.4042 9.8557 22.8637C11.052 20.9455 12.2454 19.0244 13.4397 17.1052C13.6261 16.8057 13.8163 16.5082 13.9998 16.2069C14.0892 16.06 14.4258 15.0937 14.5314 15.2589C15.0154 16.0153 15.5108 17.32 16.2877 17.6516C16.5559 17.7663 16.6396 17.8577 16.4503 18.1571C15.12 20.2571 13.8087 22.3688 12.4974 24.4814C12.1759 24.9987 11.7404 25.2913 11.0291 25.2913Z"/>
<path d="M23.3236 8.48848C21.8354 8.50112 20.6163 7.29362 20.5926 5.78376C20.5688 4.25737 21.7793 3.00126 23.2856 2.98862C24.7776 2.97598 25.99 4.1864 25.9986 5.69626C26.0081 7.26154 24.8451 8.47585 23.3236 8.48848Z"/>
<path d="M6.65203 9.71939C5.84469 9.71939 5.03641 9.72328 4.22908 9.71841C3.46359 9.71355 2.99098 9.26828 2.98908 8.56439C2.98718 7.85272 3.44837 7.40841 4.21957 7.4055C5.86656 7.39966 7.51356 7.39966 9.16055 7.4055C9.91083 7.40744 10.4177 7.87897 10.4196 8.55564C10.4215 9.2323 9.91083 9.71355 9.17006 9.71841C8.3304 9.72328 7.49169 9.71939 6.65203 9.71939Z"/>
<path d="M4.86242 17.6925C5.66785 17.6925 6.47423 17.6895 7.27966 17.6934C8.04705 17.6973 8.59003 18.1776 8.59574 18.8475C8.60239 19.5251 8.06798 20.017 7.30153 20.019C5.67451 20.0248 4.04748 20.0248 2.42046 20.019C1.65687 20.0161 1.11389 19.5125 1.12436 18.8407C1.13482 18.165 1.67304 17.6954 2.44613 17.6925C3.25156 17.6895 4.05699 17.6925 4.86242 17.6925Z"/>
<path d="M5.70874 14.874C4.91662 14.874 4.12546 14.8779 3.33334 14.873C2.56975 14.8691 2.0496 14.3859 2.04865 13.6908C2.0477 13.0132 2.54598 12.5514 3.30766 12.5484C4.95466 12.5426 6.60165 12.5407 8.24865 12.5494C9.00368 12.5533 9.49055 13.0268 9.48484 13.718C9.47914 14.3986 8.9742 14.8672 8.22582 14.8721C7.38806 14.8789 6.5484 14.874 5.70874 14.874Z"/>
</svg>

