<svg width="27" height="27" viewBox="0 0 27 27" fill="none" xmlns="http://www.w3.org/2000/svg">
<path d="M20.4446 11.8428C19.7656 12.8636 19.1409 13.8106 18.5066 14.7517C18.324 15.023 18.5684 15.0511 18.7006 15.1173C19.5241 15.5266 20.3542 15.9232 21.1806 16.3277C22.3502 16.9003 22.5984 17.9075 21.8339 18.9799C20.7346 20.5218 19.6306 22.0609 18.5323 23.6038C18.1253 24.1745 17.569 24.4107 16.9138 24.2581C16.2814 24.1113 15.883 23.6738 15.7404 23.001C15.6377 22.5149 15.786 22.1105 16.0551 21.7332C16.7541 20.7532 17.4473 19.7684 18.1643 18.803C18.3706 18.5249 18.3155 18.4228 18.0302 18.2886C16.7816 17.7043 15.5416 17.1006 14.2988 16.5027C13.21 15.9786 12.9218 15.0764 13.5057 13.9953C14.3682 12.3999 15.2364 10.8084 16.1322 9.16045C15.4865 9.06809 14.9045 9.25087 14.3168 9.2392C14.1799 9.23628 14.12 9.38892 14.0392 9.48517C13.5257 10.1006 13.015 10.718 12.5034 11.3353C11.9319 12.0246 11.194 12.1413 10.5921 11.6367C10.0016 11.1418 9.97875 10.3436 10.5388 9.66115C11.1189 8.95531 11.737 8.27865 12.2743 7.53976C12.745 6.89323 13.3422 6.63656 14.1 6.60642C14.8893 6.57531 15.6786 6.50337 16.4659 6.42948C17.4149 6.34004 18.2841 6.5374 19.0781 7.09059C19.7057 7.52712 20.3438 7.94712 20.9837 8.36323C21.6589 8.8017 22.1572 9.38601 22.4719 10.1385C22.7078 10.7024 22.9797 11.2517 23.1994 11.8214C23.3087 12.1043 23.4428 12.1296 23.6986 12.045C24.1931 11.8817 24.6961 11.7398 25.2001 11.6124C25.9295 11.4277 26.6027 11.8175 26.8034 12.5195C27.0097 13.2409 26.6569 13.8777 25.8829 14.113C24.931 14.4027 23.9734 14.6759 23.0121 14.9306C22.315 15.1153 21.7806 14.8334 21.4697 14.1489C21.1368 13.4178 20.8164 12.6809 20.4446 11.8428Z" fill="#020202"/>
<path d="M10.0291 24.3029C9.54892 24.2922 9.09819 24.0287 8.8034 23.5183C8.48485 22.9671 8.51813 22.4158 8.8557 21.8753C10.052 19.9571 11.2454 18.0359 12.4397 16.1168C12.6261 15.8173 12.8163 15.5198 12.9998 15.2184C13.0892 15.0716 13.4258 14.1053 13.5314 14.2705C14.0154 15.0269 14.5108 16.3316 15.2877 16.6632C15.5559 16.7779 15.6396 16.8693 15.4503 17.1687C14.12 19.2687 12.8087 21.3804 11.4974 23.493C11.1759 24.0103 10.7404 24.3029 10.0291 24.3029Z" fill="#020202"/>
<path d="M22.3236 7.49996C20.8354 7.5126 19.6163 6.3051 19.5925 4.79524C19.5688 3.26885 20.7793 2.01274 22.2855 2.0001C23.7775 1.98746 24.99 3.19788 24.9985 4.70774C25.008 6.27301 23.8451 7.48732 22.3236 7.49996Z" fill="#020202"/>
<path d="M5.65206 8.73074C4.84472 8.73074 4.03644 8.73463 3.22911 8.72977C2.46362 8.72491 1.99101 8.27963 1.98911 7.57574C1.98721 6.86407 2.44841 6.41977 3.2196 6.41685C4.8666 6.41102 6.51359 6.41102 8.16058 6.41685C8.91086 6.4188 9.4177 6.89032 9.4196 7.56699C9.4215 8.24366 8.91086 8.72491 8.17009 8.72977C7.33043 8.73463 6.49172 8.73074 5.65206 8.73074Z" fill="#020202"/>
<path d="M3.86242 16.7039C4.66785 16.7039 5.47423 16.701 6.27966 16.7049C7.04705 16.7088 7.59003 17.1891 7.59574 17.8589C7.60239 18.5366 7.06798 19.0285 6.30153 19.0305C4.67451 19.0363 3.04748 19.0363 1.42046 19.0305C0.656871 19.0275 0.113895 18.5239 0.124355 17.8521C0.134815 17.1764 0.673036 16.7068 1.44613 16.7039C2.25156 16.701 3.05699 16.7039 3.86242 16.7039Z" fill="#020202"/>
<path d="M4.70874 13.8855C3.91662 13.8855 3.12546 13.8894 2.33334 13.8845C1.56975 13.8806 1.0496 13.3974 1.04865 12.7023C1.0477 12.0246 1.54598 11.5628 2.30766 11.5599C3.95466 11.5541 5.60165 11.5521 7.24865 11.5609C8.00368 11.5648 8.49055 12.0383 8.48484 12.7295C8.47914 13.4101 7.9742 13.8787 7.22582 13.8835C6.38806 13.8903 5.5484 13.8855 4.70874 13.8855Z" fill="#020202"/>
</svg>
