<svg width="28" height="28" viewBox="0 0 28 28" fill="none" xmlns="http://www.w3.org/2000/svg">
<path d="M14.4044 0.399414C6.97942 0.399414 0.904419 6.47441 0.904419 13.8994C0.904419 21.3244 6.97942 27.3994 14.4044 27.3994C21.8294 27.3994 27.9044 21.3244 27.9044 13.8994C27.9044 6.47441 21.8294 0.399414 14.4044 0.399414ZM14.4044 24.6994C8.45092 24.6994 3.60442 19.8529 3.60442 13.8994C3.60442 7.94591 8.45092 3.09941 14.4044 3.09941C20.3579 3.09941 25.2044 7.94591 25.2044 13.8994C25.2044 19.8529 20.3579 24.6994 14.4044 24.6994ZM15.0794 7.14941H13.0544V15.2494L20.0744 19.5694L21.1544 17.8144L15.0794 14.1694V7.14941Z" fill="black"/>
</svg>
