<svg width="32" height="32" viewBox="0 0 32 32" fill="none" xmlns="http://www.w3.org/2000/svg">
<rect width="32" height="32" rx="16" fill="#FF9D00"/>
<path d="M10 24C9.45 24 8.97933 23.8099 8.588 23.4298C8.196 23.049 8 22.5914 8 22.0571V13.3143C8 13.0067 8.071 12.7152 8.213 12.44C8.35433 12.1648 8.55 11.9381 8.8 11.76L14.8 7.38857C14.9833 7.25905 15.175 7.1619 15.375 7.09714C15.575 7.03238 15.7833 7 16 7C16.2167 7 16.425 7.03238 16.625 7.09714C16.825 7.1619 17.0167 7.25905 17.2 7.38857L23.2 11.76C23.45 11.9381 23.646 12.1648 23.788 12.44C23.9293 12.7152 24 13.0067 24 13.3143V22.0571C24 22.5914 23.8043 23.049 23.413 23.4298C23.021 23.8099 22.55 24 22 24H18V17.2H14V24H10Z" fill="white"/>
</svg>
