<svg width="37" height="37" viewBox="0 0 37 37" fill="black" xmlns="http://www.w3.org/2000/svg">
<path d="M19.5218 1.0109C19.8571 1.0109 20.1924 0.989105 20.5277 1.01634C20.8854 1.04903 21.243 1.11985 21.5951 1.19067C21.8969 1.25059 22.2042 1.31052 22.5004 1.39223C22.7742 1.47394 23.0425 1.572 23.2995 1.69185C23.7857 1.90975 24.2719 2.12766 24.7413 2.37825C25.6298 2.85219 26.3787 3.50591 27.0716 4.2141C27.5131 4.66626 27.9322 5.15654 28.2396 5.7122C28.3793 5.95734 28.5581 6.18615 28.6866 6.43674C28.8822 6.81807 29.061 7.2103 29.2343 7.60253C29.3516 7.87491 29.469 8.14729 29.5528 8.43057C29.6534 8.78467 29.6981 9.14966 29.7931 9.50375C29.8769 9.82516 29.8937 10.1575 29.944 10.4843C30.039 11.0727 29.9831 11.661 29.9887 12.2494C29.9943 12.5435 29.9105 12.8432 29.8658 13.1373C29.8434 13.3008 29.8211 13.4642 29.7875 13.6276C29.7372 13.8782 29.6869 14.1342 29.6199 14.3794C29.5528 14.6354 29.4746 14.886 29.3796 15.1366C29.2902 15.3763 29.1896 15.616 29.0778 15.8502C28.8878 16.2425 28.7146 16.651 28.4799 17.016C28.1725 17.4954 27.8204 17.953 27.474 18.4052C27.2728 18.6667 27.066 18.9282 26.8201 19.1461C26.3507 19.5546 25.8757 19.9523 25.3616 20.301C24.8475 20.6496 24.3054 20.9819 23.7354 21.238C23.1598 21.494 22.7239 21.8535 22.4333 22.382C22.2825 22.6598 22.1875 22.954 22.1875 23.2863C22.193 25.3182 22.193 27.3502 22.1875 29.3822C22.1875 29.6818 22.2657 29.9651 22.3775 30.2265C22.5898 30.7277 22.8469 31.2071 23.0704 31.7029C23.1542 31.8881 23.2045 32.0896 23.2436 32.2912C23.2883 32.5309 23.2995 32.776 23.3219 33.0157C23.3498 33.2881 23.361 33.5659 23.3051 33.822C23.2213 34.2523 23.0369 34.6555 22.8413 35.0586C22.506 35.7395 21.9416 36.1863 21.3101 36.5676C21.081 36.7092 20.796 36.7691 20.5277 36.8563C19.9074 37.0633 19.2648 37.0143 18.6501 36.9108C18.0968 36.8182 17.5883 36.5567 17.1524 36.1808C16.8562 35.9248 16.5489 35.6742 16.3645 35.3364C16.1633 34.966 16.0068 34.5738 15.8447 34.1815C15.6436 33.6967 15.6547 33.1737 15.7106 32.678C15.7777 32.0787 16.0124 31.5231 16.3309 31.0001C16.4762 30.7659 16.56 30.4989 16.6718 30.2429C16.873 29.7798 16.8562 29.2896 16.8562 28.7993C16.8506 26.9689 16.8618 25.133 16.8506 23.3026C16.8506 22.687 16.5656 22.1913 16.1186 21.7555C15.7777 21.4232 15.3474 21.2597 14.945 21.0473C14.4141 20.7695 13.9 20.4753 13.4138 20.1212C12.7265 19.6309 12.1174 19.0589 11.5697 18.4324C11.1226 17.9258 10.7426 17.3701 10.4185 16.7818C10.2173 16.4059 10.0385 16.0191 9.85411 15.6323C9.62499 15.1475 9.4741 14.6463 9.36234 14.1233C9.2841 13.742 9.15557 13.3716 9.1444 12.9793C9.13881 12.7233 9.13881 12.4618 9.06616 12.2221C8.97116 11.9062 9.00469 11.5902 9.01028 11.2797C9.01028 10.9419 9.04381 10.6042 9.08292 10.2719C9.11645 9.98314 9.16675 9.68897 9.22822 9.4057C9.30646 9.05705 9.3791 8.70295 9.49087 8.35975C9.60263 8.01655 9.7647 7.68969 9.90999 7.35739C10.0218 7.0959 10.1279 6.82897 10.2509 6.57293C10.3626 6.35502 10.4912 6.14256 10.6253 5.93555C10.8209 5.63593 11.0053 5.32542 11.2288 5.04759C11.4859 4.72618 11.7597 4.41022 12.0559 4.12149C12.4303 3.7565 12.8159 3.38606 13.2406 3.07555C13.738 2.71056 14.2689 2.38915 14.8109 2.08953C15.1742 1.88796 15.5653 1.72998 15.9621 1.5829C16.3253 1.45215 16.7053 1.35954 17.0798 1.25604C17.3648 1.17977 17.6554 1.09806 17.9459 1.04358C18.1304 1.00545 18.3259 1.00545 18.516 1C18.8512 1.00545 19.1865 1.0109 19.5218 1.0109ZM26.9543 11.4377C26.9263 11.0509 26.8928 10.6804 26.8648 10.3046C26.8537 10.1793 26.8593 10.0485 26.8257 9.92867C26.7363 9.60726 26.6525 9.2804 26.5351 8.96989C26.3843 8.57221 26.2334 8.16908 26.0322 7.7932C25.7695 7.30836 25.451 6.86165 25.0822 6.44763C24.6742 5.99548 24.2439 5.56512 23.7242 5.23826C23.3275 4.98222 22.9195 4.75887 22.5004 4.55186C22.2266 4.41566 21.9304 4.32306 21.6342 4.23589C21.338 4.15418 21.0363 4.09425 20.7345 4.04523C20.3768 3.9853 20.0136 3.92538 19.656 3.90904C19.3933 3.89814 19.1251 3.94717 18.8568 3.97441C18.5662 4.00165 18.2701 4.02344 17.9851 4.06702C17.2698 4.18686 16.6159 4.48648 15.9845 4.80789C15.4424 5.08572 14.9562 5.45071 14.5147 5.87018C14.1124 6.25696 13.7156 6.64919 13.4194 7.11224C13.1177 7.57529 12.8438 8.05468 12.6427 8.57766C12.4527 9.07884 12.3074 9.58547 12.19 10.0975C12.123 10.3972 12.123 10.7131 12.1118 11.0236C12.1006 11.4104 12.1006 11.8027 12.1118 12.1949C12.1174 12.4019 12.1453 12.6144 12.19 12.8159C12.2459 13.0665 12.313 13.3171 12.3912 13.5622C12.4918 13.8782 12.5924 14.1942 12.7265 14.4992C12.8438 14.7716 12.9947 15.0331 13.1512 15.2782C13.3971 15.665 13.6374 16.0627 13.9391 16.4059C14.2856 16.7927 14.6936 17.125 15.0903 17.4682C15.6156 17.9258 16.2471 18.2254 16.8898 18.476C17.3983 18.6721 17.9515 18.7756 18.4936 18.8846C18.7507 18.9391 19.0189 18.9009 19.2871 18.9499C19.5163 18.9935 19.7621 18.9173 20.0024 18.89C20.2316 18.8682 20.4607 18.8301 20.6898 18.8247C20.9357 18.8192 21.1648 18.7538 21.3995 18.6776C21.6957 18.5795 22.0086 18.5359 22.288 18.4106C22.7575 18.1982 23.2213 17.9694 23.646 17.6915C24.1769 17.3374 24.6631 16.918 25.071 16.4277C25.3504 16.0954 25.6242 15.7576 25.8366 15.3872C26.0993 14.9296 26.306 14.4448 26.5016 13.9599C26.6413 13.6113 26.7587 13.2517 26.8201 12.8867C26.904 12.4073 26.9151 11.9171 26.9543 11.4377Z"/>
<path d="M5 24.4555C6.20146 24.3196 7.16808 23.7391 7.98726 22.9442C8.81735 22.1389 9.37439 21.1766 9.48908 20.0157C9.50546 20.0105 9.52185 20.0052 9.53823 20C9.57646 20.0628 9.64199 20.1255 9.64745 20.1935C9.68022 20.9204 10.0188 21.5479 10.3738 22.1598C10.7069 22.7403 11.1875 23.2214 11.75 23.6031C12.0831 23.828 12.4709 23.9849 12.8422 24.1522C13.1808 24.3039 13.5303 24.4294 13.9126 24.4555C13.9508 24.4555 13.9836 24.4974 14 24.5131C13.7215 24.5497 13.432 24.5549 13.1644 24.6281C12.6511 24.7641 12.2142 25.0517 11.7882 25.3393C11.5316 25.5119 11.3131 25.7316 11.0837 25.9355C10.5922 26.3696 10.1936 26.8768 9.88228 27.4416C9.75121 27.6769 9.6693 27.9384 9.58738 28.1947C9.52731 28.3829 9.49454 28.5816 9.46177 28.7751C9.45085 28.8379 9.49454 28.9059 9.51092 28.9686C9.48908 28.9791 9.46723 28.9895 9.44539 29C9.4017 28.9268 9.32524 28.8588 9.32524 28.796C9.3307 28.4404 9.21602 28.111 9.07403 27.8024C8.88289 27.3788 8.69175 26.9448 8.40777 26.5787C8.07464 26.1499 7.66505 25.7734 7.25546 25.4073C6.80765 25.0099 6.23968 24.785 5.66626 24.602C5.45874 24.534 5.22937 24.5392 5.01092 24.5131C5.00546 24.4922 5.00546 24.4712 5 24.4555Z"/>
<path d="M34.9508 29.6027C34.7922 29.5395 34.6555 29.5079 34.4806 29.5974C34.3111 29.687 34.1033 29.7028 33.9064 29.7501C33.4417 29.8713 33.0699 30.1451 32.7035 30.419C32.3755 30.6665 32.0583 30.9298 31.7849 31.23C31.3694 31.6934 30.9648 32.1726 30.7242 32.7519C30.6312 32.9731 30.582 33.2153 30.5273 33.447C30.4836 33.6261 30.4563 33.8104 30.4016 34C30.243 32.8625 29.7181 31.8988 28.9471 31.0404C28.1652 30.1662 27.1865 29.6606 26 29.4816C27.2139 29.3183 28.1598 28.7285 28.9909 27.9175C29.822 27.1012 30.336 26.1428 30.5547 25C30.593 25.0948 30.6586 25.1896 30.664 25.2844C30.6914 25.8163 30.9265 26.285 31.1561 26.7431C31.4842 27.3856 31.9216 27.9544 32.5121 28.402C32.9496 28.7338 33.4143 29.0339 33.9447 29.1972C34.24 29.2867 34.5243 29.45 34.8578 29.4342C34.9016 29.4342 34.9563 29.5132 35 29.5606C34.9891 29.5711 34.9672 29.5869 34.9508 29.6027Z"/>
<path d="M4.96763 20C4.57374 18.1968 3.68885 16.9139 2 16.5118C3.63489 16.0507 4.65468 14.886 5.03777 13C5.08094 13.1123 5.11871 13.201 5.14568 13.2956C5.23201 13.5971 5.30755 13.9105 5.40468 14.212C5.55576 14.6909 5.84173 15.0811 6.15468 15.4299C6.38669 15.6841 6.67266 15.897 6.96403 16.0684C7.30396 16.2635 7.68165 16.3936 8 16.5355C7.22842 16.6123 6.60791 17.1267 6.04137 17.7356C5.45863 18.3505 5.05935 19.0836 4.96763 20Z"/>
<path d="M17 17.3078C17.0866 17.1843 17.1271 17.1079 17.1906 17.0491C17.6816 16.5669 18.1784 16.0847 18.6751 15.6025C19.2297 15.0674 19.79 14.5323 20.3445 13.9972C20.4023 13.9443 20.46 13.8914 20.512 13.8385C21.3381 13.0329 22.1698 12.2214 22.9959 11.4158C23.3309 11.0924 23.6601 10.7631 23.9952 10.4338C24.4631 9.98101 24.9367 9.52823 25.4104 9.06957C25.5086 8.97549 25.5606 8.96372 25.601 9.11661C25.6703 9.38122 25.7339 9.64583 25.8147 9.90457C25.988 10.4632 25.988 11.0336 25.9996 11.6098C26.0054 11.8509 25.9534 12.045 25.7454 12.2155C25.4624 12.4448 25.2198 12.733 24.9541 12.9917C24.2782 13.6562 23.5966 14.3148 22.915 14.9792C22.1467 15.7378 21.3785 16.4963 20.6102 17.2549C20.4196 17.4431 20.2232 17.6253 20.0441 17.8311C19.8651 18.037 19.6571 18.0134 19.4319 17.9723C19.3163 17.9546 19.195 17.937 19.0795 17.9135C18.7445 17.8429 18.4037 17.79 18.0744 17.6959C17.7278 17.5901 17.3928 17.4489 17 17.3078Z"/>
<path d="M25 8.15177C24.9658 8.18887 24.9373 8.21538 24.903 8.24188C24.7491 8.37439 24.5951 8.5016 24.4411 8.63412C23.637 9.34439 22.8328 10.0547 22.0287 10.7702C21.5212 11.2208 21.025 11.6766 20.5174 12.1219C20.1068 12.4876 19.6848 12.848 19.2742 13.2138C18.8692 13.5742 18.47 13.9452 18.0651 14.3057C17.4492 14.8516 16.8276 15.3976 16.2059 15.9435C16.1204 16.023 16.052 16.0177 15.9664 15.9329C15.6641 15.6255 15.3619 15.3234 15.0539 15.0159C14.9741 14.9364 14.9855 14.8728 15.071 14.7986C15.6299 14.3057 16.1774 13.8074 16.7363 13.3198C17.3408 12.7844 17.9568 12.2597 18.5556 11.7243C18.9947 11.3321 19.4167 10.9292 19.8616 10.537C20.5174 9.95395 21.1847 9.38149 21.8462 8.80373C22.1599 8.52281 22.4679 8.23658 22.7815 7.95565C23.1123 7.65882 23.4488 7.36199 23.7796 7.06516C23.8651 6.99096 23.9278 6.96445 24.0248 7.07046C24.2871 7.35139 24.5666 7.61642 24.8289 7.89204C24.8973 7.96625 24.9373 8.05636 25 8.15177Z"/>
</svg>
