<svg width="37" height="37" viewBox="0 0 37 37" fill="black" xmlns="http://www.w3.org/2000/svg">
<g filter="url(#filter0_i_126_85)">
<path d="M32.3407 6.80896C32.4603 7.22375 32.5685 7.62196 32.6995 8.02016C32.745 8.16949 32.7336 8.21374 32.5628 8.24692C32.1301 8.32435 31.6973 8.43496 31.2703 8.54004C31.2247 8.5511 31.1507 8.6396 31.1621 8.67278C31.2361 8.92719 31.3329 9.17607 31.4126 9.43047C31.4582 9.58533 31.498 9.74572 31.5208 9.90058C31.5265 9.93376 31.4752 9.9946 31.4354 10.0057C31.2304 10.0665 31.0197 10.1218 30.809 10.1716C30.53 10.2379 30.251 10.2933 29.9435 10.3652C30.0802 10.8463 30.2112 11.3109 30.3478 11.781C29.841 11.8916 29.3627 12.0022 28.8844 12.1073C28.7592 12.135 28.7478 12.2124 28.7763 12.3119C28.856 12.5885 28.9414 12.8705 29.0268 13.1471C29.0553 13.2466 29.0951 13.3406 29.135 13.4347C29.1805 13.5453 29.1179 13.5729 29.0268 13.595C28.7421 13.6559 28.4517 13.7222 28.167 13.7886C28.0076 13.8273 27.8538 13.8771 27.7001 13.9103C27.5805 13.9379 27.5577 13.9988 27.5919 14.1094C27.7001 14.4689 27.8026 14.8339 27.9165 15.1934C27.9506 15.3095 27.9677 15.3538 27.814 15.387C27.4382 15.4644 27.068 15.5805 26.6922 15.669C26.6125 15.6912 26.5214 15.6746 26.3961 15.6746C26.4189 15.8405 26.4303 15.9843 26.4645 16.117C26.5442 16.4101 26.6296 16.7033 26.7264 16.9964C26.7663 17.1181 26.7036 17.1512 26.6125 17.1734C26.4417 17.2176 26.2709 17.2508 26.1001 17.2895C25.7983 17.3614 25.4908 17.4278 25.1662 17.4997C25.3029 17.9864 25.4395 18.4509 25.5705 18.9155C25.0125 19.0482 24.4943 19.1699 23.9705 19.2916C24.1128 19.7783 24.2438 20.2318 24.3805 20.6964C23.8338 20.8236 23.31 20.9453 22.769 21.0725C22.9057 21.5426 23.0424 22.0016 23.1847 22.4828C22.8943 22.5491 22.6153 22.6155 22.3363 22.6763C22.1256 22.7261 21.9092 22.7593 21.6986 22.8201C21.653 22.8312 21.5847 22.9307 21.5961 22.9695C21.6758 23.2626 21.7669 23.5502 21.858 23.8433C21.8865 23.9373 21.9035 24.0313 21.932 24.1254C21.9719 24.2415 21.9434 24.3023 21.8011 24.33C21.3683 24.413 20.9356 24.5125 20.5085 24.6065C20.4686 24.6176 20.4288 24.6342 20.3718 24.6563C20.5085 25.1209 20.6452 25.5744 20.7818 26.0556C20.611 26.0998 20.4459 26.1496 20.2807 26.1883C20.0473 26.2436 19.8138 26.2934 19.5804 26.3487C19.5462 26.3542 19.5063 26.3708 19.4722 26.3708C19.1875 26.3929 19.1533 26.4538 19.2387 26.7137C19.3469 27.0511 19.4551 27.394 19.5462 27.7369C19.5576 27.7701 19.5007 27.853 19.4608 27.8641C19.0337 27.9692 18.601 28.0687 18.1739 28.1627C18.0202 28.1959 17.9803 28.2457 18.0316 28.4005C18.1398 28.7545 18.2252 29.114 18.3334 29.468C18.3846 29.6339 18.2878 29.6615 18.1739 29.6892C17.8665 29.7611 17.5533 29.8219 17.2458 29.9049C16.8928 29.9989 16.8131 29.9547 16.6365 29.656C16.3803 29.2135 16.0899 28.7932 15.8166 28.3618C15.697 28.1683 15.5775 27.9802 15.4522 27.7866C15.2757 27.5101 15.0878 27.2391 14.9113 26.9626C14.7404 26.6971 14.5867 26.4206 14.3931 26.1662C14.2735 26.0113 14.1027 25.8952 13.9433 25.779C13.5048 25.4638 13.055 25.1485 12.6109 24.8443C12.2692 24.6121 11.9105 24.3908 11.5688 24.1585C11.2044 23.9097 10.8514 23.6497 10.487 23.4009C10.2137 23.2128 9.92326 23.0414 9.64426 22.8589C9.55885 22.8035 9.46774 22.7372 9.39941 22.6597C9.37094 22.6266 9.36525 22.5325 9.39372 22.4994C9.53607 22.3279 9.7012 22.1731 9.84924 22.0016C9.9802 21.8523 10.0941 21.6808 10.2194 21.5315C10.3332 21.3932 10.4699 21.2716 10.5895 21.1333C10.8229 20.8678 11.0564 20.6024 11.2841 20.3369C11.4607 20.1378 11.6372 19.9387 11.8137 19.7396C12.0187 19.5073 12.2237 19.275 12.4286 19.0427C12.7247 18.7109 13.0208 18.3735 13.3112 18.0417C13.7383 17.555 14.1596 17.0683 14.581 16.5871C14.8828 16.2387 15.196 15.8958 15.4977 15.5474C15.828 15.1657 16.1526 14.7731 16.4885 14.3915C16.8928 13.9269 17.3084 13.4734 17.7184 13.0143C18.0601 12.6272 18.396 12.2345 18.7377 11.8474C19.0793 11.4602 19.4266 11.0786 19.7626 10.6859C19.9334 10.4924 20.0701 10.2711 20.2409 10.0776C20.4971 9.77337 20.7704 9.48025 21.038 9.19266C21.2715 8.93825 21.5277 8.70043 21.7555 8.44049C22.0117 8.1529 22.2338 7.84318 22.49 7.55006C22.826 7.16292 23.179 6.79236 23.5093 6.41075C23.7769 6.10103 24.0274 5.7692 24.3007 5.45948C24.8701 4.80687 25.4566 4.16531 26.0317 3.5127C26.3449 3.15874 26.641 2.79372 26.9485 2.43976C27.2958 2.04155 27.6488 1.65441 27.9962 1.26173C28.3264 0.891179 28.651 0.515096 28.9699 0.139013C29.078 0.0118089 29.1862 -0.0158443 29.3229 0.0781765C29.6987 0.327055 30.0802 0.581464 30.4617 0.830342C30.8375 1.07369 31.219 1.31704 31.5891 1.56592C32.0503 1.88116 32.5059 2.20194 32.9728 2.51719C33.2347 2.69417 33.5023 2.86008 33.7642 3.03706C34.0433 3.21958 34.3052 3.42974 34.6013 3.57907C34.9258 3.73945 34.9657 4.02152 35.0397 4.30358C35.0511 4.34782 35.0796 4.39207 35.0967 4.43631C35.1536 4.55246 35.1023 4.65754 34.9714 4.69072C34.5443 4.79027 34.1116 4.8843 33.6845 4.98385C33.5479 5.01703 33.5593 5.11658 33.5877 5.2106C33.7016 5.56456 33.8269 5.91852 33.9351 6.27248C33.9578 6.34991 33.9578 6.43287 33.8269 6.46053C33.508 6.52136 33.1948 6.59879 32.8817 6.67622C32.6938 6.69834 32.5229 6.75365 32.3407 6.80896ZM29.3741 1.65441C29.2887 1.7429 29.209 1.8148 29.1407 1.89775C28.6111 2.50612 28.0873 3.11449 27.5577 3.72286C27.1762 4.15978 26.7833 4.59117 26.4018 5.02809C25.6559 5.87981 24.91 6.73153 24.1698 7.58877C23.7143 8.11972 23.2701 8.65619 22.8146 9.19266C22.6722 9.36411 22.5128 9.5245 22.3591 9.68488C22.0288 10.0444 21.6872 10.3928 21.3626 10.7634C21.1178 11.0344 20.9071 11.3385 20.6679 11.6095C20.0359 12.323 19.3982 13.0309 18.7661 13.7499C18.3618 14.2089 17.969 14.6846 17.5647 15.1436C16.9953 15.7907 16.4202 16.4323 15.8508 17.0793C15.3041 17.6988 14.7689 18.3237 14.228 18.9432C13.6358 19.6179 13.0379 20.2871 12.4514 20.9618C12.1838 21.2716 11.9333 21.5923 11.6656 21.902C11.5347 22.0569 11.3923 22.2007 11.25 22.3556C11.9219 22.8035 12.5767 23.2349 13.2201 23.6774C13.7554 24.0424 14.2792 24.4295 14.8145 24.8001C15.065 24.9771 15.3269 25.1319 15.492 25.4029C15.7767 25.862 16.0728 26.3044 16.3632 26.7579C16.5284 27.0124 16.6935 27.2723 16.8757 27.5544C17.1376 27.1506 17.502 26.9681 17.9462 26.9128C17.8095 26.4759 17.8835 26.0887 18.1056 25.7292C18.3334 25.3587 18.7035 25.1872 19.1419 25.1209C18.9825 24.684 19.0679 24.2968 19.29 23.9373C19.5234 23.5668 19.8935 23.4064 20.3263 23.34C20.1953 22.9142 20.2637 22.5325 20.4857 22.1731C20.7135 21.797 21.0722 21.6145 21.5107 21.5702C21.3227 20.5802 21.6986 19.9608 22.7349 19.7617C22.5811 19.3358 22.6495 18.9487 22.8829 18.5947C23.1221 18.2297 23.4865 18.0527 23.9363 17.9974C23.7769 17.566 23.8224 17.1734 24.0616 16.8083C24.3064 16.4323 24.6993 16.294 25.1321 16.2C24.984 15.7741 25.0694 15.3925 25.2858 15.0275C25.5136 14.6459 25.8837 14.4855 26.3164 14.4302C26.1741 13.9988 26.2595 13.6172 26.4645 13.2632C26.6865 12.8816 27.0794 12.7378 27.4894 12.6493C27.2901 11.6483 27.7798 11.051 28.6965 10.8408C28.5656 10.4371 28.6339 10.061 28.856 9.70148C29.0894 9.32539 29.4652 9.17054 29.9037 9.08205C29.7556 8.65066 29.8524 8.26904 30.0574 7.90402C30.2795 7.51688 30.6496 7.3399 31.088 7.29012C30.9058 6.30014 31.3386 5.71942 32.2895 5.49267C32.1585 4.8677 32.3293 4.36442 32.802 3.96068C31.6631 3.18086 30.5243 2.42316 29.3741 1.65441Z"/>
<path d="M10.5096 36.9951C10.111 37.0339 9.78643 36.8458 9.47895 36.6025C9.17147 36.3591 8.864 36.1102 8.55082 35.8669C8.15793 35.5572 7.75935 35.253 7.36646 34.9543C6.92802 34.6225 6.48388 34.3017 6.05114 33.9644C5.62978 33.6381 5.21411 33.2952 4.79275 32.9688C4.35431 32.6315 3.90448 32.3052 3.46604 31.9733C3.09023 31.6857 2.70303 31.4092 2.34431 31.094C2.02544 30.8119 1.8774 30.3086 2.12224 29.927C2.32153 29.6062 2.57777 29.3186 2.8283 29.0255C3.48881 28.2678 4.16071 27.5156 4.82122 26.7579C5.24258 26.2768 5.65255 25.7846 6.06822 25.3034C6.39278 24.9273 6.72303 24.5512 7.05898 24.1862C7.22411 24.0092 7.41201 23.8488 7.59992 23.694C7.83907 23.5004 8.12946 23.5059 8.41417 23.517C8.80705 23.5336 9.09176 23.7769 9.39924 23.9705C9.93448 24.3189 10.4583 24.6674 10.9936 25.0158C11.4434 25.3089 11.8875 25.602 12.3374 25.8896C12.5993 26.0556 12.8726 26.2159 13.1345 26.3763C13.4819 26.592 13.647 26.946 13.852 27.2668C14.1822 27.7866 14.5125 28.3121 14.8371 28.8375C15.025 29.1416 15.2015 29.4514 15.3837 29.7555C15.5431 30.021 15.7025 30.292 15.862 30.5575C15.9531 30.7123 16.0499 30.8672 16.141 31.0221C16.2378 31.188 16.1695 31.4037 15.9986 31.5641C15.9075 31.6526 15.8278 31.7521 15.7424 31.8461C15.657 31.9401 15.5659 32.0342 15.4805 32.1282C15.3894 32.2333 15.3154 32.3439 15.2186 32.449C15.1104 32.5651 14.9851 32.6702 14.8712 32.7808C14.5637 33.1071 14.2506 33.4113 13.9602 33.7376C13.5445 34.2022 13.1402 34.6723 12.7303 35.1424C12.3146 35.618 11.916 36.1102 11.4833 36.5693C11.2327 36.8292 10.9195 37.0007 10.5096 36.9951ZM6.39847 27.7756C6.22765 27.8198 5.94864 27.8364 5.73796 27.9581C5.24827 28.2402 4.75289 28.5554 4.58776 29.1361C4.49097 29.4845 4.53082 29.8496 4.75289 30.1427C4.94649 30.3971 5.19133 30.6183 5.42479 30.8451C5.85754 31.2599 6.30167 31.6691 6.73442 32.0839C7.05898 32.3937 7.37785 32.7144 7.70241 33.0242C8.18071 33.4777 8.6704 33.9256 9.1487 34.3847C9.66116 34.8769 10.2647 34.9765 10.9366 34.7884C11.3238 34.6778 11.6085 34.4179 11.8875 34.1579C12.121 33.9478 12.2804 33.6934 12.3089 33.3781C12.3488 32.9467 12.2406 32.5651 11.8989 32.2665C11.7053 32.095 11.5288 31.907 11.3466 31.73C10.9082 31.3152 10.464 30.9004 10.0256 30.4856C9.70671 30.1759 9.39924 29.8606 9.07467 29.5509C8.62485 29.1195 8.15224 28.7103 7.7081 28.2733C7.36077 27.936 6.9451 27.8198 6.39847 27.7756ZM13.516 32.2499C13.8805 31.8904 14.2449 31.5364 14.5979 31.1714C14.6264 31.1382 14.6207 31.0442 14.5922 30.9944C14.2335 30.4082 13.8691 29.833 13.5103 29.2467C13.237 28.8043 12.958 28.3674 12.7018 27.9194C12.5708 27.6926 12.4456 27.4769 12.2121 27.3276C11.1758 26.6584 10.1509 25.9837 9.12023 25.3145C8.84691 25.1375 8.56221 24.966 8.2889 24.7946C7.78213 25.3642 7.29244 25.9173 6.79136 26.4869C6.86538 26.5091 6.92232 26.5257 6.98496 26.5367C7.69102 26.675 8.31737 26.9349 8.80705 27.488C9.18286 27.9138 9.63269 28.2733 10.0427 28.666C10.669 29.2578 11.2897 29.8551 11.916 30.4524C12.2918 30.8119 12.679 31.1659 13.032 31.5475C13.2142 31.7576 13.3452 32.0065 13.516 32.2499Z"/>
<path d="M29.3738 1.65441C30.524 2.41764 31.6628 3.17534 32.8073 3.93856C32.329 4.3423 32.1639 4.84559 32.2949 5.47055C31.344 5.6973 30.9112 6.27802 31.0934 7.268C30.6607 7.31778 30.2849 7.49476 30.0628 7.8819C29.8578 8.24139 29.761 8.62854 29.9091 9.05993C29.4763 9.14842 29.0948 9.30328 28.8614 9.67936C28.6393 10.0388 28.571 10.4149 28.7019 10.8187C27.7795 11.0288 27.2898 11.6261 27.4948 12.6272C27.0848 12.7212 26.6976 12.8595 26.4699 13.2411C26.2592 13.6006 26.1795 13.9822 26.3218 14.408C25.8834 14.4689 25.5133 14.6293 25.2912 15.0054C25.0748 15.3704 24.9894 15.752 25.1375 16.1779C24.7047 16.2719 24.3118 16.4157 24.067 16.7862C23.8278 17.1512 23.7766 17.5439 23.9417 17.9753C23.4919 18.0306 23.1275 18.2076 22.8883 18.5726C22.6549 18.9321 22.5808 19.3192 22.7403 19.7396C21.7039 19.9387 21.3281 20.5581 21.516 21.5481C21.0776 21.5923 20.7189 21.7693 20.4911 22.1509C20.2747 22.5104 20.2064 22.8865 20.3317 23.3179C19.8989 23.3843 19.5288 23.5447 19.2954 23.9152C19.0676 24.2747 18.9879 24.6618 19.1473 25.0988C18.7089 25.1651 18.3388 25.3421 18.111 25.7071C17.8889 26.0666 17.8149 26.4538 17.9516 26.8907C17.5074 26.946 17.143 27.1285 16.8811 27.5322C16.6989 27.2502 16.5338 26.9902 16.3686 26.7358C16.0782 26.2823 15.7764 25.8399 15.4974 25.3808C15.3323 25.1098 15.0704 24.955 14.8198 24.778C14.2846 24.4074 13.7608 24.0203 13.2255 23.6553C12.5821 23.2128 11.9273 22.787 11.2554 22.3334C11.3977 22.1786 11.5401 22.0348 11.671 21.8799C11.933 21.5702 12.1892 21.2494 12.4568 20.9397C13.049 20.265 13.6469 19.5958 14.2334 18.921C14.7743 18.3016 15.3152 17.6767 15.8562 17.0572C16.4256 16.4101 17.0007 15.7686 17.5701 15.1215C17.9743 14.6625 18.3615 14.1868 18.7715 13.7278C19.4036 13.0143 20.0413 12.3064 20.6733 11.5874C20.9125 11.3109 21.1289 11.0122 21.368 10.7412C21.6926 10.3762 22.0342 10.0223 22.3645 9.66277C22.5182 9.49685 22.6719 9.34199 22.82 9.17054C23.2755 8.6396 23.7196 8.0976 24.1752 7.56666C24.9154 6.70941 25.6613 5.85769 26.4072 5.00597C26.7887 4.56905 27.1816 4.13767 27.5631 3.70075C28.0927 3.09238 28.6165 2.48401 29.1461 1.87564C29.2087 1.82033 29.2884 1.74843 29.3738 1.65441Z"/>
<path d="M13.516 32.2499C13.3452 32.001 13.2142 31.7521 13.0263 31.553C12.6733 31.1714 12.2861 30.823 11.9103 30.4579C11.2896 29.8606 10.6633 29.2633 10.0369 28.6716C9.62128 28.2789 9.17714 27.9194 8.80134 27.4935C8.31165 26.9405 7.6853 26.6805 6.97924 26.5423C6.9223 26.5312 6.85967 26.5091 6.78564 26.4925C7.28672 25.9228 7.77641 25.3698 8.28318 24.8001C8.56219 24.9716 8.8412 25.143 9.11451 25.32C10.1451 25.9892 11.1758 26.6695 12.2064 27.3331C12.4398 27.4825 12.5651 27.6982 12.6961 27.9249C12.9523 28.3729 13.2313 28.8098 13.5046 29.2523C13.8633 29.833 14.2278 30.4137 14.5865 30.9999C14.615 31.0442 14.6207 31.1437 14.5922 31.1769C14.2448 31.5364 13.8861 31.8904 13.516 32.2499Z"/>
</g>
<defs>
<filter id="filter0_i_126_85" x="0" y="0" width="37" height="41" filterUnits="userSpaceOnUse" color-interpolation-filters="sRGB">
<feFlood flood-opacity="0" result="BackgroundImageFix"/>
<feBlend mode="normal" in="SourceGraphic" in2="BackgroundImageFix" result="shape"/>
<feColorMatrix in="SourceAlpha" type="matrix" values="0 0 0 0 0 0 0 0 0 0 0 0 0 0 0 0 0 0 127 0" result="hardAlpha"/>
<feOffset dy="4"/>
<feGaussianBlur stdDeviation="2"/>
<feComposite in2="hardAlpha" operator="arithmetic" k2="-1" k3="1"/>
<feColorMatrix type="matrix" values="0 0 0 0 0 0 0 0 0 0 0 0 0 0 0 0 0 0 0.15 0"/>
<feBlend mode="normal" in2="shape" result="effect1_innerShadow_126_85"/>
</filter>
</defs>
</svg>
