<svg width="38" height="38" viewBox="0 0 38 38" fill="black" xmlns="http://www.w3.org/2000/svg">
<g filter="url(#filter0_i_126_105)">
<path d="M17.4792 3.01821C17.8438 2.66167 18.1713 2.34673 18.4988 2.03178C18.5358 2.00207 18.6162 1.99613 18.6718 2.00207C19.0981 2.03772 19.5245 2.07338 19.9508 2.12686C20.4637 2.19223 20.9704 2.26948 21.477 2.35267C22.3359 2.50123 23.201 2.63196 24.0598 2.81023C24.7272 2.95284 25.3883 3.13706 26.0433 3.32721C26.2225 3.38069 26.3955 3.50548 26.5314 3.63621C26.8589 3.95116 27.1555 4.30175 27.483 4.6167C28.0885 5.20499 28.7126 5.77545 29.3243 6.3578C29.5838 6.60144 29.8186 6.86884 30.072 7.11248C30.5169 7.54627 30.9679 7.98006 31.419 8.40791C31.6723 8.6456 31.938 8.87735 32.1914 9.11505C32.3211 9.23983 32.4385 9.37651 32.5436 9.49535C32.4756 9.86378 32.3829 10.2263 32.3397 10.5947C32.2902 11.0344 32.3953 11.4682 32.6733 11.8188C32.939 12.1575 33.3654 12.2467 33.7855 12.2764C34.2366 12.3061 34.6815 12.2526 35.1202 12.1338C35.1943 12.1159 35.3179 12.1338 35.3735 12.1813C35.769 12.5319 36.1521 12.9003 36.5475 13.2569C36.9059 13.5896 37.0913 13.9878 36.9553 14.4572C36.8256 14.891 36.5723 15.2535 36.2077 15.5565C35.8431 15.8596 35.5342 16.228 35.1882 16.5548C34.7186 16.9946 34.2613 17.4521 33.6434 17.7017C33.2665 17.8562 32.8587 17.779 32.5621 17.5116C32.3026 17.2739 32.0184 17.054 31.7588 16.8104C31.5549 16.6262 31.3696 16.4241 31.1842 16.2161C31.1533 16.1805 31.1471 16.1092 31.1533 16.0557C31.2027 15.6278 31.314 15.2059 31.3016 14.784C31.2831 14.2017 30.9679 13.7798 30.3995 13.5302C29.8186 13.2747 29.2316 13.3341 28.6446 13.4529C28.4902 13.4827 28.3789 13.4708 28.2677 13.3519C28.1503 13.2153 28.0082 13.1024 27.8784 12.9716C27.7919 12.8884 27.7178 12.8884 27.6375 12.9716C27.1308 13.4827 26.6303 13.9937 26.1236 14.4988C25.9259 14.6949 25.7035 14.8732 25.4995 15.0693C24.9743 15.5684 24.4553 16.0735 23.9301 16.5727C17.6955 22.6041 11.4486 28.6118 5.19546 34.6195C4.9792 34.8275 4.70114 34.988 4.43545 35.1306C4.08943 35.3089 3.73105 35.2316 3.4221 35.0414C3.15022 34.881 2.89689 34.6909 2.66826 34.4769C2.1863 34.0194 1.72288 33.544 1.26564 33.0686C1.09881 32.8963 1.04937 32.6705 1.0123 32.4328C0.938153 31.9277 1.21003 31.5711 1.53751 31.2502C2.26045 30.5372 3.00193 29.836 3.73105 29.1348C4.13886 28.7426 4.55285 28.3444 4.96066 27.9522C5.42408 27.5066 5.8875 27.0609 6.35093 26.6152C6.84524 26.1398 7.33338 25.6644 7.8277 25.195C8.32202 24.7196 8.82251 24.2383 9.31683 23.7629C9.71228 23.3826 10.1016 23.0082 10.497 22.6279C10.5959 22.5388 10.7009 22.4556 10.7936 22.3605C11.22 21.9505 11.6339 21.5286 12.0665 21.1245C12.2024 20.9938 12.3692 20.9046 12.5052 20.7739C12.8821 20.4055 13.2405 20.0192 13.6174 19.6567C14.2106 19.0863 14.8223 18.5396 15.4216 17.9751C15.7059 17.7077 15.9654 17.4224 16.2435 17.1491C16.7254 16.6796 17.2074 16.2161 17.6955 15.7526C17.918 15.5387 18.1589 15.3426 18.3814 15.1287C18.6409 14.8791 18.8881 14.6117 19.1476 14.3562C19.3577 14.1541 19.5925 13.964 19.8025 13.762C20.0559 13.5124 20.2969 13.2509 20.5502 13.0073C20.7603 12.8052 20.9951 12.621 21.2052 12.413C21.4214 12.1991 21.613 11.9555 21.8292 11.7416C22.0826 11.492 22.3545 11.2662 22.614 11.0166C22.9353 10.7135 23.2504 10.4045 23.5593 10.0896C23.5964 10.048 23.6026 9.97074 23.6088 9.90538C23.615 9.60826 23.5964 9.31114 23.615 9.01403C23.6459 8.51487 23.72 8.02166 23.7262 7.52844C23.7324 7.16596 23.6706 6.79753 23.5964 6.44099C23.5717 6.31026 23.4296 6.17359 23.2998 6.10228C22.4657 5.63878 21.6192 5.18716 20.7726 4.74149C20.0621 4.36712 19.3453 4.01652 18.6285 3.6481C18.2516 3.452 17.8871 3.24402 17.4792 3.01821Z"/>
</g>
<defs>
<filter id="filter0_i_126_105" x="0.517578" y="0.5" width="37" height="41" filterUnits="userSpaceOnUse" color-interpolation-filters="sRGB">
<feFlood flood-opacity="0" result="BackgroundImageFix"/>
<feBlend mode="normal" in="SourceGraphic" in2="BackgroundImageFix" result="shape"/>
<feColorMatrix in="SourceAlpha" type="matrix" values="0 0 0 0 0 0 0 0 0 0 0 0 0 0 0 0 0 0 127 0" result="hardAlpha"/>
<feOffset dy="4"/>
<feGaussianBlur stdDeviation="2"/>
<feComposite in2="hardAlpha" operator="arithmetic" k2="-1" k3="1"/>
<feColorMatrix type="matrix" values="0 0 0 0 0 0 0 0 0 0 0 0 0 0 0 0 0 0 0.15 0"/>
<feBlend mode="normal" in2="shape" result="effect1_innerShadow_126_105"/>
</filter>
</defs>
</svg>

