<svg width="37" height="38" viewBox="0 0 37 38" fill="black" xmlns="http://www.w3.org/2000/svg">
<g filter="url(#filter0_i_126_146)">
<path d="M9.51956 37C9.43539 36.9641 9.34132 36.9334 9.26705 36.8822C9.01455 36.7131 8.93533 36.3289 9.05416 35.9959C9.2621 35.4119 9.4651 34.8228 9.67304 34.2388C9.89089 33.6241 10.1137 33.0094 10.3365 32.3946C10.7078 31.3496 11.0791 30.3045 11.4554 29.2646C11.8763 28.0915 12.2922 26.9184 12.713 25.7401C13.0992 24.6592 13.4804 23.5783 13.8666 22.4974C14.2082 21.5446 14.5498 20.5866 14.8865 19.6338C14.8915 19.6184 14.8915 19.6031 14.9014 19.5621C14.738 19.5518 14.5845 19.5313 14.431 19.5262C13.8715 19.5109 13.3121 19.5057 12.7575 19.4904C12.4456 19.4852 12.1337 19.4647 11.8218 19.4596C11.4208 19.4443 11.0296 19.4391 10.6335 19.4238C10.3909 19.4135 10.1483 19.393 9.90574 19.352C9.56907 19.3008 9.39083 18.8859 9.475 18.6092C9.56412 18.3121 9.69285 18.0304 9.82157 17.7486C10.1236 17.0827 10.4355 16.4167 10.7375 15.7507C11.0692 15.0182 11.401 14.2856 11.7327 13.5531C12.0595 12.8308 12.3912 12.1084 12.7179 11.3861C13.0497 10.6536 13.3814 9.92102 13.7131 9.18334C14.0399 8.46103 14.3716 7.73872 14.6984 7.01641C15.0301 6.28386 15.3618 5.5513 15.6935 4.81362C16.0203 4.09643 16.3471 3.37924 16.6689 2.66206C16.857 2.24711 17.0303 1.82704 17.2234 1.41722C17.3521 1.13547 17.5848 1.00228 17.8868 1.00228C19.387 1.00228 20.8872 1.00228 22.3874 1.00228C22.9815 1.00228 23.5756 0.997154 24.1697 1.00228C24.6302 1.0074 25.0906 1.01765 25.5461 1.03814C26.0313 1.05863 26.2838 1.50431 26.1106 1.99609C25.8779 2.66206 25.6402 3.32289 25.3976 3.98373C25.0114 5.0339 24.6252 6.08407 24.239 7.13424C23.9766 7.85655 23.7142 8.58398 23.4518 9.30629C23.2092 9.96713 22.9666 10.628 22.729 11.2888C22.7191 11.3195 22.7141 11.3503 22.6993 11.4066C22.7735 11.4066 22.8329 11.4066 22.8874 11.4066C23.4221 11.4066 23.9519 11.4118 24.4866 11.4066C25.5362 11.3964 26.5809 11.3861 27.6305 11.3708C27.9127 11.3656 28.1702 11.4374 28.2989 11.7089C28.4326 11.9957 28.3831 12.2775 28.19 12.5336C27.6058 13.3174 27.0265 14.1012 26.4423 14.885C25.9274 15.5766 25.4174 16.2681 24.8975 16.9597C24.3282 17.723 23.7588 18.4812 23.1894 19.2393C22.7587 19.8182 22.3329 20.4022 21.8972 20.9811C21.3872 21.6624 20.8723 22.3386 20.3624 23.02C19.9811 23.5271 19.6148 24.0445 19.2335 24.5517C18.8028 25.1305 18.3621 25.7043 17.9265 26.2883C17.5452 26.7954 17.1739 27.3128 16.7976 27.82C16.3966 28.3579 15.9906 28.8855 15.5945 29.4234C15.2925 29.823 14.9954 30.2328 14.6934 30.6324C14.2874 31.1754 13.8814 31.7184 13.4755 32.2614C13.213 32.62 12.9556 32.9684 12.6932 33.3167C12.2971 33.8495 11.906 34.3823 11.5099 34.915C11.0841 35.4939 10.6534 36.0677 10.2276 36.6465C10.1038 36.8156 9.94535 36.9436 9.74731 37C9.67304 37 9.59382 37 9.51956 37Z"/>
</g>
<defs>
<filter id="filter0_i_126_146" x="0" y="0.5" width="37" height="41" filterUnits="userSpaceOnUse" color-interpolation-filters="sRGB">
<feFlood flood-opacity="0" result="BackgroundImageFix"/>
<feBlend mode="normal" in="SourceGraphic" in2="BackgroundImageFix" result="shape"/>
<feColorMatrix in="SourceAlpha" type="matrix" values="0 0 0 0 0 0 0 0 0 0 0 0 0 0 0 0 0 0 127 0" result="hardAlpha"/>
<feOffset dy="4"/>
<feGaussianBlur stdDeviation="2"/>
<feComposite in2="hardAlpha" operator="arithmetic" k2="-1" k3="1"/>
<feColorMatrix type="matrix" values="0 0 0 0 0 0 0 0 0 0 0 0 0 0 0 0 0 0 0.25 0"/>
<feBlend mode="normal" in2="shape" result="effect1_innerShadow_126_146"/>
</filter>
</defs>
</svg>

