<svg width="37" height="38" viewBox="0 0 37 38" fill="black" xmlns="http://www.w3.org/2000/svg">
<path d="M19.6243 5.65756C19.725 5.80295 19.7922 5.9763 19.8929 6.17201C19.8145 6.23911 19.7138 6.33977 19.5963 6.41805C18.9473 6.85422 18.3823 7.37986 17.9067 8.00055C17.6661 8.3137 17.4199 8.61566 17.1962 8.94558C17.0451 9.15807 16.9388 9.40411 16.8157 9.63338C16.7262 9.78995 16.6423 9.94093 16.5583 10.0975C16.536 10.1366 16.5248 10.187 16.5136 10.2317C16.5024 10.2709 16.508 10.3212 16.4856 10.3547C16.3345 10.5672 16.2954 10.8244 16.2003 11.0593C16.0324 11.4787 15.9485 11.9205 15.7974 12.3454C15.7639 12.4349 15.7303 12.5412 15.7359 12.6362C15.7583 12.8878 15.6632 13.1115 15.5904 13.3464C15.5736 13.3911 15.5848 13.4414 15.5848 13.4918C15.5569 13.8105 15.5289 14.1292 15.5121 14.4424C15.5065 14.6213 15.5289 14.7947 15.5289 14.968C15.5345 15.1749 15.5009 15.3874 15.5401 15.5831C15.6296 15.9857 15.4953 16.4163 15.7135 16.8022C15.7807 16.9252 15.7415 17.0985 15.7863 17.2383C15.8534 17.4732 15.9485 17.7024 16.0268 17.9373C16.0884 18.1051 16.1443 18.2728 16.2115 18.4406C16.273 18.6083 16.329 18.7817 16.4017 18.9438C16.5472 19.2458 16.6982 19.5478 16.8549 19.8441C16.9052 19.9448 17.0619 20.0119 16.9891 20.1405C16.9332 20.2412 16.8269 20.3083 16.7374 20.381C16.4576 20.6102 16.1891 20.8563 15.8926 21.0576C15.5457 21.2924 15.1708 21.4881 14.8072 21.695C14.7288 21.7398 14.6281 21.7342 14.5554 21.7845C14.2868 21.969 14.2756 22.1536 14.4938 22.4891C14.4882 22.5003 14.4827 22.5115 14.4715 22.5115C14.2253 22.5115 14.1917 22.5338 14.2812 22.8414C14.3764 23.1769 14.4267 23.5292 14.505 23.8703C14.5218 23.9486 14.5386 24.0213 14.5666 24.0996C14.6897 24.4574 14.6169 24.8545 14.7904 25.2067C14.8295 25.285 14.7904 25.4025 14.8016 25.4975C14.8295 25.7044 14.8687 25.9113 14.9023 26.1126C14.9191 26.2077 14.9358 26.3027 14.947 26.3978C14.9974 26.8396 15.0589 27.2813 15.0925 27.7231C15.1261 28.081 15.1205 28.4444 15.1428 28.8079C15.154 29.0428 15.1764 29.2832 15.1932 29.5181C15.2044 29.7026 15.2044 29.8815 15.21 30.0661C15.2156 30.1779 15.2436 30.2953 15.2436 30.4128C15.2491 31.1285 15.2603 31.8499 15.2436 32.5712C15.2324 32.9683 15.1764 33.3709 15.1317 33.7679C15.1205 33.8965 14.9414 34.0419 14.8183 34.0251C14.7568 34.0139 14.6561 33.9524 14.6561 33.9133C14.6561 33.6337 14.6785 33.3541 14.6953 33.0745C14.6953 33.013 14.7176 32.9459 14.7176 32.8788C14.7232 32.1071 14.7232 31.341 14.7176 30.5693C14.7176 30.368 14.6897 30.1667 14.6785 29.9654C14.6449 29.328 14.6113 28.6905 14.5722 28.053C14.5554 27.8181 14.505 27.5889 14.4771 27.3596C14.4547 27.2086 14.4435 27.0577 14.4211 26.9067C14.3819 26.6103 14.3372 26.3195 14.2924 26.0232C14.2701 25.861 14.2645 25.6932 14.2365 25.5311C14.2029 25.3354 14.1582 25.134 14.1246 24.9383C14.0574 24.5637 14.0015 24.1946 13.94 23.8256C13.9288 23.7752 13.9064 23.7305 13.8896 23.6858C13.856 23.6075 13.7889 23.5236 13.8001 23.4509C13.8337 23.1881 13.6938 22.97 13.6378 22.7295C13.6099 22.6065 13.5539 22.5394 13.4084 22.5897C13.291 22.6345 13.1623 22.6457 13.0392 22.6736C13.0336 22.6568 13.0336 22.6401 13.028 22.6177C13.1119 22.4891 13.1958 22.3549 13.2798 22.2263C13.3469 22.12 13.291 21.969 13.1679 21.9243C12.9497 21.8516 12.7203 21.7901 12.5077 21.695C12.3007 21.6056 12.1048 21.4826 11.909 21.3651C11.7076 21.2421 11.5174 21.1079 11.3216 20.9681C11.1313 20.8339 10.9411 20.6885 10.7565 20.5487C10.1075 20.0678 9.55919 19.4863 9.01089 18.9047C8.65842 18.5245 8.36749 18.0883 8.05417 17.6745C7.89752 17.4732 7.74086 17.2719 7.61218 17.0538C7.43315 16.7518 7.2653 16.4331 7.10865 16.12C6.95758 15.8236 6.80652 15.5272 6.67784 15.2197C6.59392 15.0295 6.54916 14.8282 6.48762 14.6325C6.3981 14.3641 6.30858 14.0957 6.22466 13.8217C6.19109 13.7322 6.17431 13.6372 6.15193 13.5421C6.11276 13.3687 6.0736 13.1898 6.03443 13.0109C6.02325 12.9494 6.00646 12.8823 6.00646 12.8152C6.00087 12.077 5.99527 11.3389 6.00646 10.6008C6.01206 10.4218 6.07919 10.2485 6.10717 10.0695C6.14074 9.84587 6.14633 9.6166 6.19109 9.39293C6.25823 9.10774 6.35334 8.82815 6.43726 8.54856C6.5044 8.29692 6.56595 8.04529 6.63868 7.79925C6.68344 7.64267 6.75058 7.49729 6.81212 7.3519C6.96318 7.01079 7.09746 6.6641 7.28209 6.33977C7.53385 5.91479 7.82479 5.51217 8.09893 5.09837C8.457 4.55037 8.94376 4.1142 9.41932 3.67804C9.73263 3.39285 10.0851 3.14122 10.4823 2.95669C10.8628 2.78334 11.232 2.58762 11.6069 2.40309C11.6796 2.36954 11.758 2.35836 11.8307 2.3304C11.9426 2.29125 12.0433 2.23533 12.1552 2.20178C12.323 2.15146 12.4909 2.09554 12.6643 2.07876C13.0168 2.03962 13.3749 1.99488 13.7273 2.00048C14.3316 2.01166 14.9246 2.11791 15.4953 2.34158C15.6184 2.39191 15.7583 2.40868 15.8758 2.4646C16.1835 2.60999 16.4856 2.76656 16.7877 2.92873C16.9891 3.03497 17.1906 3.14122 17.3752 3.26983C17.5542 3.39285 17.7053 3.54383 17.8731 3.67245C18.3823 4.06947 18.7795 4.57274 19.1823 5.06482C19.339 5.25494 19.49 5.45066 19.6243 5.65756ZM10.639 7.06671C10.7845 6.91573 10.7901 6.80949 10.6334 6.6585C10.3984 6.44042 10.1578 6.22234 9.91726 6.00426C9.82215 5.92038 9.73822 5.83091 9.63192 5.76381C9.548 5.70789 9.4361 5.70229 9.37456 5.80854C9.15076 6.17201 8.93257 6.54108 8.71437 6.91014C8.5689 7.15618 8.42343 7.40222 8.28356 7.65386C8.22762 7.7601 8.17726 7.87753 8.1325 7.99496C8.05977 8.18509 7.98704 8.37521 7.9143 8.55974C7.83038 8.78901 7.71848 9.01268 7.65135 9.24195C7.57302 9.52713 7.52826 9.81791 7.46672 10.1031C7.45553 10.1534 7.43874 10.1982 7.43315 10.2429C7.40517 10.3939 7.36601 10.5393 7.34922 10.6902C7.33244 10.8748 7.32684 11.0593 7.32684 11.2438C7.33244 11.6968 7.34363 12.1441 7.35482 12.5915C7.35482 12.5971 7.36041 12.6027 7.36601 12.6083C7.55623 12.8487 7.39958 13.2122 7.64016 13.4359C7.65694 13.4526 7.64016 13.4974 7.64575 13.5253C7.70729 13.7099 7.75765 13.9 7.83598 14.0789C7.90871 14.2411 8.01501 14.3921 8.11012 14.543C8.24999 14.7779 8.38987 15.0128 8.54652 15.2364C8.66401 15.4098 8.78151 15.5887 8.93816 15.7229C9.04446 15.8124 9.10601 16.0249 9.35777 15.9242C9.20112 15.6726 9.03887 15.4377 8.8934 15.1917C8.80388 15.0407 8.73115 14.873 8.64723 14.7164C8.62485 14.6717 8.59128 14.6325 8.5689 14.5878C8.54093 14.5486 8.51295 14.5095 8.50176 14.4648C8.43462 14.2131 8.37308 13.9615 8.31154 13.7043C8.30594 13.6819 8.28916 13.6651 8.27797 13.6428C8.24999 13.5477 8.21083 13.4582 8.20524 13.3687C8.18286 12.9941 8.16048 12.625 8.16048 12.256C8.16048 11.9596 8.16048 11.652 8.21643 11.3613C8.27237 11.0761 8.40106 10.8077 8.49617 10.5281C8.54652 10.3771 8.59688 10.2261 8.64723 10.0751C8.71996 9.88501 8.77591 9.6893 8.87102 9.51036C9.04446 9.19162 9.24588 8.87848 9.4361 8.57092C9.59835 8.3137 9.74941 8.05088 9.93404 7.82161C10.1466 7.5532 10.3984 7.31275 10.639 7.06671Z"/>
<path d="M31.9443 16.1367C31.9499 16.4051 31.8715 16.6568 31.8044 16.9084C31.754 17.1041 31.754 17.3054 31.7093 17.5011C31.6365 17.7975 31.547 18.0939 31.4519 18.3847C31.396 18.5412 31.312 18.6866 31.2449 18.8432C31.2113 18.9383 31.189 19.0389 31.1554 19.134C31.1386 19.1843 31.0994 19.2234 31.0715 19.2682C31.0491 19.2961 31.0211 19.3185 31.0099 19.3465C30.9148 19.5366 30.8253 19.7267 30.7302 19.9112C30.6295 20.1014 30.5232 20.2915 30.4113 20.476C30.2714 20.7053 30.1315 20.929 29.9805 21.147C29.7567 21.4602 29.5217 21.7677 29.2923 22.0753C29.2084 22.1871 29.1189 22.299 29.0182 22.3996C28.7384 22.696 28.4643 22.998 28.1733 23.2831C27.916 23.5404 27.6642 23.8032 27.3845 24.0269C27.0879 24.2673 26.7634 24.4686 26.4501 24.6867C26.2487 24.8209 26.0529 24.9663 25.8459 25.0893C25.6948 25.1788 25.527 25.2571 25.3647 25.3186C25.1689 25.3969 25.1018 25.5367 25.1969 25.7324C25.2472 25.833 25.2864 25.9449 25.3367 26.0735C25.2584 26.0567 25.1857 26.0567 25.1409 26.0176C25.0346 25.9337 24.9283 25.9449 24.8444 26.0232C24.7996 26.0679 24.7829 26.163 24.7829 26.2412C24.7829 26.9179 24.7829 27.5945 24.7885 28.2711C24.7885 28.3773 24.85 28.4836 24.8836 28.5954C24.8948 28.629 24.9283 28.6625 24.9283 28.6905C24.9171 29.1658 25.2137 29.5181 25.4039 29.9095C25.5326 30.1723 25.7731 30.396 25.9802 30.6141C26.2039 30.8545 26.4613 31.067 26.6907 31.3019C26.7299 31.341 26.7411 31.4585 26.7131 31.5032C26.618 31.6654 26.5285 31.8275 26.2935 31.8443C26.1648 31.8499 26.0361 31.9338 25.913 31.9953C25.4654 32.2245 24.9899 32.4259 24.6933 32.8508C24.5982 32.9906 24.587 33.2031 24.5814 33.3877C24.5758 33.7288 24.7605 34.0139 24.8668 34.3271C24.9395 34.5452 25.0402 34.7521 25.1074 34.9702C25.1745 35.1715 25.2193 35.384 25.264 35.5909C25.2976 35.7362 25.2976 35.8928 25.3088 36.0382C25.32 36.2507 25.3256 36.4688 25.2304 36.6645C25.2025 36.7204 25.1521 36.7651 25.1074 36.8099C25.0514 36.8658 24.9899 36.9161 24.9507 37C24.8892 37 24.8332 37 24.7325 37C24.7661 36.8378 24.8052 36.6813 24.8108 36.5191C24.822 36.4184 24.7829 36.3122 24.7605 36.206C24.7325 36.0326 24.7157 35.8593 24.6654 35.6915C24.6094 35.4846 24.5199 35.2833 24.4472 35.082C24.3688 34.8639 24.3297 34.6235 24.2122 34.4221C24.0723 34.1873 24.0667 33.9357 24.0555 33.684C24.0443 33.4156 24.0499 33.1584 24.1898 32.8844C24.3465 32.5712 24.587 32.3643 24.8276 32.1518C25.0122 31.9841 25.2584 31.8834 25.4766 31.7548C25.5773 31.6933 25.6948 31.6598 25.7787 31.5815C25.8683 31.492 25.8067 31.3914 25.7284 31.3075C25.5214 31.0782 25.3032 30.8601 25.113 30.6197C24.9563 30.4184 24.8332 30.1947 24.7101 29.971C24.5982 29.7697 24.5143 29.5628 24.4192 29.3559C24.3968 29.3168 24.38 29.2664 24.3744 29.2217C24.3465 29.0428 24.3185 28.8694 24.2961 28.6961C24.2681 28.5115 24.229 28.3326 24.2234 28.1537C24.2178 27.5441 24.2234 26.9346 24.2178 26.3251C24.2178 26.2524 24.1842 26.1797 24.1674 26.107C24.0779 26.1294 23.9884 26.1574 23.8989 26.1853C23.8541 26.1965 23.8094 26.2189 23.759 26.2021C23.8485 26.0847 23.9436 25.9728 24.0276 25.8554C24.1115 25.7268 24.0611 25.6653 23.9157 25.6094C23.5744 25.4752 23.2387 25.3242 22.903 25.1676C22.6792 25.0614 22.4554 24.9439 22.2372 24.8209C22.1477 24.7706 22.0805 24.6979 22.0022 24.6364C21.6106 24.3344 21.1966 24.0604 20.8385 23.7249C20.2566 23.1713 19.6692 22.6177 19.1992 21.9579C18.981 21.6447 18.718 21.3595 18.4942 21.052C18.36 20.8675 18.2593 20.6606 18.1474 20.4648C18.0187 20.2468 17.89 20.0287 17.7669 19.8106C17.683 19.654 17.5991 19.4863 17.5207 19.3241C17.4312 19.1396 17.3473 18.955 17.2578 18.7705C17.2522 18.7593 17.2522 18.7481 17.2466 18.7369C17.1907 18.5245 17.1291 18.312 17.0676 18.1051C17.062 18.0827 17.0732 18.0603 17.062 18.0491C16.9053 17.8646 16.9221 17.6298 16.8606 17.4117C16.8158 17.2383 16.771 17.065 16.7375 16.886C16.6871 16.6344 16.6479 16.3772 16.6088 16.12C16.5976 16.0584 16.5864 15.9969 16.5864 15.941C16.5808 15.5496 16.5696 15.1582 16.592 14.7667C16.6032 14.4927 16.6591 14.2187 16.6983 13.9447C16.7207 13.7714 16.7375 13.5924 16.771 13.4191C16.8046 13.2122 16.855 13.0109 16.8941 12.804C16.9557 12.5356 16.9948 12.2616 17.0732 11.9987C17.1403 11.7751 17.2466 11.5682 17.3417 11.3557C17.3417 11.3445 17.3585 11.3333 17.3585 11.3221C17.3753 10.9642 17.5991 10.6847 17.7222 10.3659C17.8508 10.036 18.069 9.74522 18.2481 9.44326C18.36 9.25873 18.4663 9.07979 18.5894 8.91203C18.7572 8.67717 18.9418 8.45909 19.1209 8.23541C19.4622 7.79366 19.8874 7.44137 20.3126 7.09467C20.5755 6.87659 20.8888 6.72002 21.1798 6.54108C21.3141 6.4572 21.4483 6.36214 21.5938 6.29503C21.7616 6.21675 21.9463 6.15524 22.1253 6.09373C22.2876 6.03781 22.4498 5.9763 22.6177 5.93156C22.9757 5.8365 23.3282 5.73026 23.7142 5.75262C23.9828 5.76381 24.2681 5.65197 24.5199 5.7023C24.9283 5.78617 25.3647 5.66315 25.7452 5.88124C25.8179 5.92038 25.913 5.9092 25.9913 5.93715C26.2375 6.02662 26.4781 6.13287 26.7243 6.22234C26.8921 6.28944 27.0712 6.32299 27.2278 6.40687C27.4236 6.50753 27.6083 6.63614 27.7817 6.77034C28.1621 7.04994 28.5538 7.32953 28.9063 7.64268C29.1636 7.86635 29.3762 8.14594 29.5888 8.41435C29.8462 8.73868 30.0924 9.0686 30.3162 9.4153C30.4672 9.64457 30.5791 9.90179 30.7134 10.1478C30.7917 10.2932 30.8812 10.4274 30.954 10.5728C31.0099 10.6902 31.0547 10.8133 31.0994 10.9363C31.1666 11.1432 31.2393 11.3501 31.3065 11.5626C31.3065 11.5738 31.3065 11.5849 31.3065 11.5961C31.3904 11.8478 31.4799 12.0938 31.5638 12.3454C31.5862 12.4125 31.603 12.4852 31.6142 12.5579C31.6589 12.9214 31.8436 13.2569 31.7932 13.6372C31.782 13.7266 31.8324 13.8273 31.8492 13.9223C31.8827 14.1069 31.9331 14.2914 31.9331 14.4759C31.9443 15.0295 31.9275 15.5831 31.9443 16.1367ZM29.9973 13.6204C30.1539 13.1507 30.1092 12.6698 30.0532 12.1945C30.0084 11.8813 29.9861 11.5626 29.8462 11.2662C29.8014 11.1711 29.8294 11.0481 29.7902 10.9475C29.7231 10.7797 29.6224 10.6231 29.5497 10.461C29.4769 10.2988 29.4266 10.1255 29.3427 9.97449C29.2028 9.71167 28.9958 9.49359 28.8671 9.21958C28.7888 9.04064 28.6321 8.88966 28.5146 8.7275C28.33 8.48705 28.0726 8.30811 27.916 8.03411C27.8656 7.93345 27.7313 7.88872 27.6027 7.98378C27.4908 8.06766 27.3285 8.05647 27.2222 8.16272C27.2054 8.1739 27.1886 8.19068 27.1719 8.19627C26.9928 8.25778 26.8138 8.31929 26.6348 8.37521C26.6236 8.3808 26.618 8.41435 26.6068 8.41995C26.5508 8.44231 26.4949 8.4535 26.4501 8.48705C26.4054 8.51501 26.3494 8.55415 26.3326 8.60448C26.3214 8.63803 26.355 8.70513 26.3886 8.73309C26.5229 8.8617 26.6739 8.97354 26.8026 9.10215C26.8977 9.19162 26.976 9.29787 27.0656 9.39852C27.1439 9.4824 27.2558 9.5551 27.2949 9.65575C27.4068 9.91857 27.6866 10.036 27.7817 10.3212C27.8376 10.4945 28.0111 10.6287 28.1118 10.7909C28.2573 11.0313 28.3803 11.283 28.509 11.529C28.5538 11.6129 28.6041 11.6968 28.6433 11.7807C28.6601 11.8142 28.6601 11.8478 28.6713 11.8813C28.7104 12.0043 28.7496 12.1218 28.7888 12.2448C28.7944 12.2448 28.8 12.2392 28.8056 12.2392C28.8223 12.3454 28.8391 12.4517 28.8671 12.5579C28.8895 12.653 28.9398 12.7369 28.9566 12.8319C29.0014 13.0612 29.0238 13.2961 29.0741 13.5197C29.1804 14.0062 29.1916 14.4871 29.0461 14.968C29.0238 15.0463 29.0182 15.1246 29.0014 15.1973C28.9678 15.3706 28.9678 15.5552 28.8895 15.7062C28.7776 15.9186 28.7664 15.9466 28.9566 16.0529C29.0293 15.9746 29.1357 15.9186 29.1636 15.8292C29.2531 15.5719 29.5273 15.4042 29.5161 15.0966C29.5161 15.0855 29.5553 15.0743 29.5665 15.0575C29.6 15.0184 29.6448 14.9792 29.6616 14.9345C29.7231 14.7444 29.7847 14.5598 29.8462 14.3697C29.8798 14.269 29.9245 14.1684 29.9413 14.0677C29.9693 13.9168 29.9525 13.7602 29.9973 13.6204Z"/>
</svg>
