<svg width="37" height="38" viewBox="0 0 37 38" fill="black" xmlns="http://www.w3.org/2000/svg">
<path d="M1 21.2296C2.13112 17.7446 3.93168 14.577 5.58507 11.3365C5.89959 10.7193 6.30645 10.1924 7.03648 10.0584C7.2529 10.0177 7.47797 10.006 7.70015 10.006C9.29295 10.0031 10.8857 10.0264 12.4786 10.0002C13.2461 9.98855 13.8434 10.4893 13.8347 11.3831C13.803 14.9991 13.8203 18.618 13.8203 22.234C13.8203 22.7028 13.8405 22.7319 14.3137 22.7406C14.9457 22.7494 15.5776 22.7435 16.2124 22.7435C22.5605 22.7435 28.9115 22.7406 35.2596 22.7523C35.6146 22.7523 35.9868 22.8076 36.3186 22.9299C36.7745 23.0958 37.0111 23.4685 36.9996 23.9809C36.9909 24.3128 36.9996 24.6418 36.9996 24.9737C36.9967 25.7248 36.636 26.1936 35.8944 26.2693C35.2568 26.3333 34.6075 26.3071 33.964 26.3217C33.7649 26.3246 33.5687 26.3217 33.3235 26.3217C33.2859 27.6289 32.7896 28.6945 31.7047 29.4165C30.9891 29.894 30.1927 30.0862 29.3299 29.9639C27.8756 29.7601 26.355 28.5489 26.2626 26.4323C26.1674 27.6377 25.7057 28.6508 24.7102 29.3554C24.0696 29.8096 23.3483 30.0338 22.5605 29.993C20.884 29.9057 19.2566 28.6101 19.1816 26.345C16.6481 26.345 14.1146 26.345 11.5523 26.345C11.5061 27.5503 11.0704 28.5693 10.0922 29.303C9.46319 29.7746 8.7447 30.0192 7.95985 29.9988C6.39879 29.961 4.60689 28.8226 4.47992 26.3188C4.15963 26.3188 3.83357 26.2984 3.51039 26.3217C2.30136 26.4119 1.40397 26.0043 1 24.7757C1 23.5937 1 22.4116 1 21.2296ZM8.08104 18.2046C8.99286 18.2046 9.90756 18.2104 10.8194 18.2017C11.4023 18.1959 11.7399 17.9106 11.7456 17.3661C11.7658 15.7241 11.7687 14.082 11.7601 12.4429C11.7572 11.9683 11.6244 11.8606 11.1628 11.8577C10.274 11.8519 9.3824 11.8839 8.49366 11.849C7.63955 11.8169 7.13748 12.242 6.8345 12.9961C6.62097 13.5318 6.38147 14.0587 6.1766 14.5973C5.78994 15.6076 5.40906 16.6237 5.04548 17.6427C4.88101 18.1056 4.95315 18.2017 5.40906 18.2046C6.30356 18.2075 7.1923 18.2046 8.08104 18.2046ZM8.02333 24.7728C7.09708 24.7728 6.34396 25.5327 6.34396 26.4614C6.34396 27.3873 7.10573 28.1559 8.02333 28.1559C8.93803 28.1559 9.70846 27.3814 9.70558 26.4614C9.70846 25.5356 8.94669 24.7728 8.02333 24.7728ZM22.7221 24.7728C21.7959 24.767 21.0427 25.5123 21.037 26.444C21.0283 27.3873 21.793 28.1675 22.7192 28.1588C23.6368 28.1501 24.3957 27.3844 24.3957 26.4643C24.3986 25.5385 23.6426 24.7786 22.7221 24.7728ZM28.1267 26.4527C28.1238 27.3873 28.8682 28.1501 29.7916 28.1588C30.7092 28.1646 31.4681 27.4047 31.471 26.4702C31.4767 25.5327 30.7352 24.7757 29.806 24.7728C28.874 24.7699 28.1295 25.5123 28.1267 26.4527Z"/>
<path d="M26.0072 11.9962C25.41 11.9962 24.8101 11.9992 24.2129 11.9962C23.4577 11.9904 23.0131 11.5079 23.0051 10.6871C22.9997 10.2223 22.997 9.7545 23.0051 9.28967C23.0158 8.54831 23.4148 8.03642 24.079 8.02171C25.3618 7.99229 26.6446 7.99229 27.9274 8.02465C28.5621 8.03936 28.9638 8.53654 28.9879 9.23378C29.004 9.74567 29.004 10.2605 28.9879 10.7753C28.9638 11.5167 28.5139 11.9904 27.8337 11.9992C27.2258 12.0021 26.6152 11.9962 26.0072 11.9962Z"/>
<path d="M24.9884 21.997C24.3806 21.997 23.77 22.003 23.1622 21.997C22.4686 21.9882 22.0241 21.5041 22.008 20.7365C21.9973 20.2465 21.9973 19.7535 22.008 19.2635C22.0214 18.5284 22.4338 18.0295 23.1033 18.0177C24.3645 17.9941 25.6258 17.9941 26.887 18.0177C27.5725 18.0295 27.9795 18.5255 27.9929 19.29C28.001 19.7683 28.0036 20.2494 27.9929 20.7277C27.9769 21.5129 27.5297 21.9941 26.8147 22C26.2042 22 25.5963 21.997 24.9884 21.997Z"/>
<path d="M29.0054 13.0026C29.6137 13.0026 30.2247 12.9967 30.833 13.0026C31.5029 13.0085 31.9424 13.4507 31.9799 14.1906C32.0067 14.7272 32.0067 15.2696 31.9799 15.8061C31.9451 16.5165 31.5377 16.9705 30.8919 16.9823C29.6297 17.0059 28.3676 17.0059 27.1054 16.9823C26.4167 16.9705 26.0121 16.4723 26.004 15.7118C25.9987 15.2342 25.9987 14.7537 26.004 14.2761C26.0121 13.492 26.4569 13.0115 27.1751 13.0056C27.7887 12.9997 28.3971 13.0026 29.0054 13.0026Z"/>
<path d="M22.0149 13.0026C22.6225 13.0026 23.2328 12.9967 23.8404 13.0026C24.5336 13.0115 24.9833 13.4982 24.994 14.2592C25.002 14.7489 25.002 15.2415 24.994 15.7312C24.9833 16.4657 24.5737 16.9672 23.9046 16.9819C22.6439 17.0055 21.3832 17.0055 20.1225 16.9849C19.4614 16.9731 19.0492 16.5129 19.0171 15.7872C18.9957 15.2622 18.993 14.7342 19.0171 14.2061C19.0519 13.4569 19.4962 13.0085 20.1868 13.0026C20.7997 12.9997 21.4073 13.0026 22.0149 13.0026Z"/>
<path d="M18.0089 21.9987C17.3998 21.9987 16.788 22.0016 16.1789 21.9987C15.4894 21.9928 15.0493 21.5474 15.0171 20.7893C14.9957 20.2643 14.993 19.7363 15.0171 19.2083C15.0493 18.4827 15.4598 18.0284 16.128 18.0166C17.381 17.996 18.6341 17.993 19.8845 18.0166C20.5928 18.0284 20.9926 18.524 20.998 19.3115C21.0007 19.7658 21.0007 20.223 20.998 20.6772C20.9926 21.5149 20.5633 21.9928 19.8066 21.9987C19.2083 22.0016 18.6099 21.9987 18.0089 21.9987Z"/>
<path d="M31.9948 21.9974C31.3848 21.9974 30.7721 22.0033 30.1622 21.9974C29.4582 21.9915 29.0175 21.5125 29.0067 20.7439C28.9987 20.2295 28.996 19.7121 29.0094 19.1948C29.0255 18.5296 29.4205 18.0329 30.0251 18.0211C31.3445 17.9915 32.6639 17.9945 33.9832 18.0211C34.561 18.0329 34.9587 18.503 34.9829 19.1327C35.0044 19.7062 35.007 20.2856 34.9829 20.8592C34.956 21.5273 34.5072 21.9855 33.8919 21.9944C33.2604 22.0033 32.6289 21.9974 31.9948 21.9974Z"/>
</svg>
