<svg width="37" height="37" viewBox="0 0 37 37" fill="black" xmlns="http://www.w3.org/2000/svg">
<g filter="url(#filter0_i_126_122)">
<path d="M19.9054 34.4877C19.8645 33.7031 19.847 32.9583 19.9054 32.2192C19.9346 31.844 19.9171 31.463 19.9522 31.0935C20.0106 30.5022 20.0866 29.9109 20.1625 29.3196C20.2151 28.9217 20.2736 28.5294 20.3378 28.1314C20.3963 27.7789 20.4664 27.4321 20.5307 27.0796C20.6066 26.6759 20.6768 26.2666 20.7703 25.8629C20.8579 25.4593 20.9748 25.067 21.0741 24.669C21.2202 24.0891 21.3546 23.5035 21.5124 22.9292C21.6935 22.2811 21.8922 21.633 22.0967 20.9962C22.3013 20.3481 22.5233 19.7056 22.7512 19.0632C22.9382 18.5231 23.1369 17.9829 23.3414 17.4428C23.5401 16.9141 23.7446 16.3853 23.955 15.8623C24.253 15.1118 24.5627 14.367 24.8724 13.6222C24.9951 13.3323 25.1354 13.0537 25.2698 12.7637C25.5678 12.1213 25.8541 11.4732 26.158 10.8307C26.5028 10.103 26.8534 9.38661 27.204 8.66456C27.2683 8.5338 27.3209 8.39735 27.391 8.22678C27.0579 8.32344 26.9469 8.57928 26.7891 8.77827C26.3625 9.3127 25.9476 9.85281 25.5269 10.3929C25.3399 10.6317 25.1763 10.8876 25.001 11.132C24.5686 11.7404 24.1186 12.3373 23.7096 12.957C23.3765 13.4687 23.0843 14.0032 22.798 14.5433C22.4999 15.1061 22.2253 15.6804 21.9565 16.2546C21.7403 16.7208 21.5416 17.187 21.3371 17.6589C20.9923 18.4662 20.6651 19.2735 20.3028 20.0752C19.9697 20.8086 19.6074 21.5306 19.2626 22.2584C19.2042 22.3834 19.1574 22.5085 19.1048 22.6279C18.8068 22.2811 18.538 21.9172 18.2283 21.5989C17.8485 21.2123 17.4453 20.837 17.0187 20.4959C16.5921 20.1548 16.148 19.8193 15.6688 19.5578C14.88 19.12 14.056 18.7334 13.2379 18.3468C12.8347 18.1592 12.4081 18.0114 11.9933 17.8522C11.5725 17.6873 11.1459 17.5338 10.7194 17.3803C10.6901 17.3689 10.6551 17.3632 10.6317 17.3462C10.4856 17.2666 10.2869 17.2211 10.2227 17.1017C10.1642 16.988 10.2285 16.8004 10.2694 16.6526C10.3688 16.2716 10.4622 15.8907 10.5966 15.5212C10.7836 15.0208 10.9882 14.5262 11.2161 14.043C11.3622 13.7303 11.5667 13.446 11.7478 13.1503C12.3263 12.2179 13.0685 11.4106 13.8983 10.6943C14.4008 10.2565 14.9676 9.89261 15.5169 9.51169C15.9318 9.21605 16.3584 8.93178 16.7908 8.66456C17.8076 8.02779 18.8302 7.39672 19.8587 6.78269C20.6008 6.34491 21.3605 5.93556 22.1201 5.5319C23.1077 5.00316 24.1011 4.4801 25.1003 3.9741C26.1931 3.42262 27.2917 2.89387 28.3902 2.35376C29.2259 1.94441 30.0673 1.55212 30.8913 1.12571C31.4815 0.818699 32.0425 0.471889 32.621 0.142135C32.6852 0.102337 32.7437 0.0397979 32.7904 0C32.7378 0.636766 32.6736 1.26785 32.6443 1.90461C32.6151 2.62097 32.5976 3.34302 32.6093 4.05938C32.621 4.78143 32.6677 5.50347 32.7261 6.22552C32.7787 6.87366 32.8781 7.52179 32.9482 8.16993C32.995 8.63045 33.03 9.09665 33.0709 9.55717C33.0943 9.77322 33.1177 9.99495 33.1527 10.211C33.2229 10.6374 33.3105 11.0638 33.3748 11.4902C33.4858 12.2464 33.6027 13.0025 33.6962 13.7587C33.778 14.4125 33.8364 15.0663 33.889 15.7202C33.9241 16.1352 33.9475 16.5445 33.965 16.9596C33.9884 17.4997 34.0234 18.0455 34 18.5856C33.965 19.3929 33.9007 20.2003 33.8072 21.0019C33.7196 21.7751 33.591 22.537 33.4508 23.3045C33.3923 23.6286 33.2696 23.9413 33.1703 24.2539C33.0768 24.5553 32.9891 24.8623 32.8781 25.1636C32.7378 25.5502 32.5976 25.9425 32.4281 26.3178C32.0308 27.199 31.5516 28.0461 30.9497 28.808C30.4647 29.422 29.968 30.019 29.3252 30.4908C28.8577 30.832 28.437 31.2356 27.9578 31.5711C27.4903 31.8951 26.9936 32.1794 26.4852 32.4466C25.9944 32.7025 25.486 32.9356 24.9718 33.1459C24.551 33.3222 24.1069 33.4529 23.6687 33.5951C23.2888 33.7202 22.9032 33.8452 22.5116 33.9476C22.1727 34.0385 21.8221 34.0897 21.4773 34.1636C21.1735 34.2262 20.8696 34.3001 20.5657 34.3626C20.3671 34.4081 20.1567 34.4422 19.9054 34.4877Z"/>
<path d="M6.91517 20.6778C6.9853 20.8143 7.04958 20.9564 7.13139 21.0929C7.56381 21.7922 8.0196 22.4801 8.4345 23.1908C8.90782 23.9924 9.36362 24.8111 9.79604 25.6355C10.1642 26.3291 10.5031 27.0455 10.8303 27.7562C11.0875 28.3077 11.327 28.8648 11.5491 29.4277C11.7712 29.9848 11.9698 30.5477 12.1627 31.1162C12.338 31.6222 12.5074 32.1339 12.6535 32.6513C12.7587 33.0095 12.823 33.379 12.9048 33.7429C12.9574 33.9874 13.0158 34.2318 13.0567 34.4763C13.1152 34.8572 13.1619 35.2439 13.2145 35.6305C13.2671 36.0228 13.2613 36.0284 12.8581 35.983C12.0809 35.8863 11.2978 35.8067 10.5265 35.6646C10.0765 35.585 9.63827 35.4201 9.21753 35.2495C8.77342 35.0733 8.32931 34.8857 7.92026 34.6412C7.09048 34.1409 6.31329 33.5667 5.69972 32.7934C5.16211 32.1112 4.74138 31.3664 4.40829 30.5818C4.1804 30.036 4.02262 29.4561 3.87653 28.8819C3.73044 28.3133 3.61942 27.7334 3.53176 27.1535C3.47333 26.7555 3.46748 26.3519 3.44411 25.9539C3.41489 25.3626 3.33893 24.7713 3.37399 24.1857C3.47917 22.5654 3.43827 20.9507 3.43242 19.3304C3.43242 18.8585 3.35646 18.3809 3.29218 17.909C3.21037 17.2893 3.10518 16.6696 3.01169 16.0499C3.01753 16.0158 3 15.9817 3 15.9817C3.35061 16.1864 3.71876 16.4195 4.10443 16.6185C4.80565 16.988 5.50688 17.3576 6.21979 17.6987C7.00283 18.0739 7.80339 18.4207 8.59811 18.7675C9.32271 19.0802 10.0532 19.3816 10.7836 19.6829C11.3154 19.8989 11.8471 20.1093 12.3789 20.331C13.01 20.5926 13.6528 20.8427 14.2722 21.144C15.0728 21.5306 15.8383 21.9855 16.4694 22.6166C16.8784 23.0259 17.3108 23.4239 17.6322 23.8901C18.1932 24.7031 18.5438 25.6128 18.6782 26.602C18.76 27.1763 18.7425 27.7448 18.7308 28.319C18.725 28.7113 18.6256 29.0979 18.573 29.4902C18.4854 30.127 18.2984 30.7353 18.088 31.338C17.8718 31.9634 17.5855 32.549 17.2407 33.1118C17.007 33.4984 16.7499 33.8737 16.4869 34.2887C16.4402 34.1864 16.4051 34.1238 16.3759 34.0556C16.2181 33.6463 16.0895 33.2255 15.9025 32.8332C15.4643 31.9179 15.0202 31.0025 14.5293 30.1099C14.1845 29.4788 13.758 28.8819 13.3664 28.2735C13.1327 27.904 12.9048 27.5344 12.6535 27.1763C12.4139 26.8294 12.1451 26.494 11.888 26.1586C11.6309 25.8231 11.3796 25.482 11.1108 25.1523C10.7369 24.6917 10.357 24.2369 9.97135 23.7764C9.64995 23.3898 9.32271 23.0089 8.99548 22.6336C8.80264 22.4005 8.59811 22.1731 8.38775 21.9514C8.00207 21.5477 7.6164 21.144 7.22488 20.7461C7.16645 20.6835 7.07295 20.6551 6.99698 20.6039C6.96777 20.6267 6.93855 20.6551 6.91517 20.6778Z"/>
</g>
<defs>
<filter id="filter0_i_126_122" x="0" y="0" width="37" height="41" filterUnits="userSpaceOnUse" color-interpolation-filters="sRGB">
<feFlood flood-opacity="0" result="BackgroundImageFix"/>
<feBlend mode="normal" in="SourceGraphic" in2="BackgroundImageFix" result="shape"/>
<feColorMatrix in="SourceAlpha" type="matrix" values="0 0 0 0 0 0 0 0 0 0 0 0 0 0 0 0 0 0 127 0" result="hardAlpha"/>
<feOffset dy="4"/>
<feGaussianBlur stdDeviation="2"/>
<feComposite in2="hardAlpha" operator="arithmetic" k2="-1" k3="1"/>
<feColorMatrix type="matrix" values="0 0 0 0 0 0 0 0 0 0 0 0 0 0 0 0 0 0 0.15 0"/>
<feBlend mode="normal" in2="shape" result="effect1_innerShadow_126_122"/>
</filter>
</defs>
</svg>

