<svg width="38" height="38" viewBox="0 0 38 38" fill="black" xmlns="http://www.w3.org/2000/svg">
<g clip-path="url(#clip0_126_150)" filter="url(#filter0_i_126_150)">
<path d="M19.2828 15.3759C19.2988 15.5305 19.3202 15.6508 19.3255 15.7767C19.3521 16.2807 19.3895 16.7846 19.3948 17.2886C19.3948 17.6322 19.3681 17.9815 19.3202 18.3194C19.2668 18.7603 19.2028 19.2012 19.1069 19.6307C18.9949 20.1232 18.9362 20.6329 18.7443 21.1139C18.6163 21.4346 18.5683 21.7954 18.4563 22.1218C18.3603 22.4024 18.227 22.6658 18.1044 22.935C17.9924 23.187 17.8804 23.4504 17.7525 23.6909C17.5818 24.0116 17.3899 24.3208 17.1979 24.6243C17.0006 24.9278 16.7873 25.2256 16.5793 25.5234C16.5633 25.5463 16.5367 25.5578 16.478 25.5978C16.814 23.6565 16.5207 21.8756 15.6035 20.2206C15.5875 20.2263 15.5662 20.2263 15.5502 20.232C15.5022 20.4611 15.4702 20.6902 15.4116 20.9135C15.3422 21.1941 15.2569 21.469 15.1716 21.7439C15.0756 22.0588 14.985 22.3738 14.8783 22.6773C14.7984 22.9064 14.6917 23.1297 14.5904 23.353C14.4198 23.7482 14.2545 24.1433 14.0678 24.527C13.8865 24.8992 13.6786 25.2543 13.4759 25.615C13.2413 26.0331 13.0334 26.474 12.7614 26.8634C12.3988 27.3903 12.1215 27.9629 11.8762 28.5528C11.7163 28.9364 11.6096 29.3545 11.4923 29.7611C11.391 30.1104 11.311 30.4597 11.2257 30.8148C11.2257 30.8205 11.2257 30.8262 11.2257 30.8319C11.199 31.3416 11.1511 31.8513 11.1617 32.3609C11.1724 32.7904 11.231 33.2199 11.3057 33.638C11.3643 33.9758 11.4817 34.2965 11.5723 34.6287C11.6363 34.8692 11.679 35.1154 11.7589 35.3502C11.8762 35.7053 12.0096 36.0546 12.1375 36.4096C12.2015 36.5757 12.2762 36.7418 12.3402 36.9079C12.3508 36.9308 12.3455 36.9823 12.3348 36.988C12.3082 36.9995 12.2655 37.0052 12.2442 36.9938C11.7003 36.633 11.1564 36.2722 10.6178 35.9114C10.4312 35.7854 10.2392 35.6709 10.0526 35.5392C9.83931 35.3903 9.63135 35.2357 9.42339 35.0754C9.17277 34.8806 8.92748 34.6859 8.68753 34.4855C8.52756 34.3538 8.37292 34.2106 8.21828 34.0675C7.91967 33.7926 7.61573 33.5349 7.33312 33.2428C7.10383 33.0081 6.90654 32.7446 6.69324 32.4927C6.62392 32.4125 6.54927 32.3438 6.48528 32.2579C6.29332 32.0059 6.12802 31.7539 5.93605 31.5363C5.78142 31.3588 5.63211 31.187 5.52547 30.9694C5.31217 30.5456 5.05622 30.1505 4.85893 29.721C4.6563 29.2743 4.475 28.8047 4.33636 28.3294C4.22972 27.9801 4.20305 27.6079 4.1444 27.2414C4.10174 26.9837 4.05375 26.7317 4.01109 26.474C4.00576 26.4454 4.00576 26.411 4.00576 26.3767C4.00576 25.8269 3.98976 25.2829 4.01109 24.7331C4.02709 24.3895 4.10174 24.0459 4.1444 23.6966C4.16573 23.5134 4.16573 23.3301 4.18706 23.1469C4.20305 22.9922 4.22972 22.8376 4.26704 22.6887C4.33103 22.4196 4.39502 22.1504 4.46967 21.887C4.56565 21.5549 4.66697 21.2285 4.77361 20.902C4.86959 20.5985 4.96557 20.2893 5.08289 19.9972C5.21619 19.6594 5.3655 19.333 5.5148 19.0008C5.79741 18.3594 6.08003 17.7181 6.36797 17.0824C6.5706 16.6357 6.78922 16.2005 6.98119 15.7596C7.18915 15.2843 7.39711 14.809 7.57841 14.3165C7.7597 13.8297 7.91434 13.3315 8.05298 12.8276C8.14363 12.4954 8.21295 12.1575 8.26094 11.814C8.3036 11.5162 8.3036 11.2069 8.33026 10.8519C8.38892 10.9206 8.43158 10.955 8.4529 11.0065C8.55422 11.2127 8.6662 11.4188 8.75151 11.6364C8.86349 11.917 8.96481 12.2034 9.06079 12.4954C9.11944 12.6672 9.17277 12.8447 9.22076 13.0223C9.29008 13.28 9.36473 13.5319 9.41272 13.7896C9.46604 14.0645 9.48737 14.3508 9.5247 14.6314C9.55136 14.8319 9.57802 15.038 9.59402 15.2385C9.62068 15.5649 9.63668 15.8856 9.66867 16.212C9.69 16.4525 9.73266 16.693 9.77532 16.9564C9.82331 16.9106 9.87663 16.8705 9.91929 16.819C10.1432 16.5098 10.3619 16.1891 10.5858 15.8798C10.8151 15.5649 11.0551 15.2556 11.2737 14.9349C11.5776 14.4825 11.8603 14.013 12.1589 13.5548C12.3348 13.2857 12.5321 13.0337 12.7028 12.7588C12.8894 12.4611 13.0494 12.1461 13.2253 11.8369C13.4493 11.4303 13.6892 11.0294 13.8972 10.6114C14.2011 10.0101 14.5051 9.40878 14.777 8.79031C15.001 8.28065 15.1769 7.74235 15.3742 7.22123C15.4809 6.94062 15.5929 6.66575 15.6782 6.37942C15.7902 6.00719 15.8755 5.62351 15.9715 5.24555C16.0354 5.01076 16.1101 4.77597 16.1688 4.53546C16.2061 4.39802 16.2274 4.25485 16.2487 4.11742C16.2754 3.92271 16.2967 3.72228 16.3234 3.52185C16.4407 2.63423 16.4407 1.74661 16.4247 0.853262C16.4194 0.629925 16.3767 0.406588 16.3554 0.183251C16.3341 0.137438 16.3447 0.0858988 16.3554 0C16.542 0.0801722 16.7127 0.137438 16.8726 0.223337C17.2512 0.429494 17.6298 0.635651 17.9924 0.864715C18.2804 1.04797 18.5576 1.25412 18.8242 1.47173C19.1868 1.76952 19.5494 2.07302 19.896 2.39371C20.2906 2.76594 20.6799 3.14962 21.0425 3.55621C21.3678 3.91699 21.6504 4.31212 21.9543 4.6958C22.1089 4.89051 22.2689 5.08521 22.4129 5.29137C22.5409 5.47462 22.6528 5.67505 22.7755 5.86403C22.9355 6.12745 23.1061 6.38515 23.2554 6.65429C23.41 6.92344 23.554 7.20405 23.6926 7.48465C23.9486 8.0115 24.2099 8.53834 24.4498 9.07092C24.6471 9.51759 24.8284 9.96999 25.0044 10.4281C25.127 10.7488 25.223 11.0867 25.335 11.4131C25.4416 11.7395 25.559 12.0602 25.6603 12.3866C25.7403 12.6558 25.7989 12.9364 25.8682 13.2112C25.9002 13.3315 25.9216 13.4518 25.9642 13.6236C26.1082 13.4689 26.2468 13.3487 26.3481 13.1998C26.5028 12.9707 26.6521 12.7359 26.7587 12.4782C26.8867 12.1805 26.9827 11.8655 27.068 11.5505C27.2706 10.7946 27.2333 10.0215 27.2013 9.24844C27.18 8.80177 27.068 8.36082 26.9667 7.9256C26.8974 7.62209 26.7801 7.33003 26.6841 7.03225C26.6787 7.00934 26.6841 6.98644 26.6894 6.95208C26.7161 6.95208 26.7374 6.94635 26.7427 6.9578C27.18 7.39875 27.6279 7.82825 28.0491 8.2921C28.3637 8.64142 28.6517 9.01938 28.9396 9.3916C29.1849 9.70657 29.4142 10.033 29.6435 10.3594C29.8888 10.7087 30.1341 11.0638 30.3687 11.4188C30.4913 11.6135 30.5873 11.8254 30.7046 12.0258C30.8699 12.3064 31.0512 12.5699 31.2112 12.8505C31.3605 13.1139 31.4885 13.3945 31.6218 13.6694C31.8777 14.1962 32.1444 14.7173 32.3843 15.2499C32.5336 15.5763 32.6403 15.9256 32.7629 16.2692C32.8802 16.5957 33.0029 16.9163 33.1148 17.2428C33.1842 17.4546 33.2321 17.678 33.2961 17.8956C33.3868 18.222 33.4934 18.5427 33.5681 18.8691C33.6374 19.1497 33.6747 19.4418 33.7227 19.7224C33.7814 20.0488 33.84 20.3695 33.8934 20.6959C33.92 20.862 33.9147 21.028 33.936 21.1941C34.0107 21.6809 33.952 22.1676 33.968 22.6544C33.9787 22.9693 33.9947 23.2786 34 23.5935C34 23.6852 33.9467 23.7711 33.936 23.8627C33.8827 24.2693 33.856 24.6759 33.7814 25.0767C33.7174 25.449 33.6054 25.8097 33.5148 26.1762C33.4294 26.5198 33.3601 26.8749 33.2481 27.2127C33.1468 27.5334 32.9975 27.8369 32.8749 28.1462C32.7736 28.3981 32.6829 28.6616 32.5709 28.9078C32.507 29.0453 32.4216 29.1712 32.3417 29.3029C32.1763 29.5893 32.011 29.8813 31.8351 30.1619C31.7231 30.3509 31.6005 30.5284 31.4778 30.706C31.2912 30.9751 31.1152 31.2557 30.9073 31.5077C30.4753 32.0288 30.0488 32.5557 29.5795 33.0424C29.1209 33.5177 28.6197 33.9529 28.1238 34.3939C27.7452 34.7318 27.3506 35.0582 26.9507 35.3731C26.6254 35.6251 26.2841 35.8542 25.9429 36.089C25.5376 36.3638 25.127 36.633 24.7164 36.9021C24.6738 36.9308 24.6151 36.9422 24.5192 36.9766C24.5618 36.8678 24.5831 36.8048 24.6045 36.7418C24.7271 36.4211 24.8498 36.1004 24.9671 35.774C25.1004 35.4075 25.2443 35.0467 25.367 34.6802C25.4416 34.4569 25.479 34.2278 25.5323 33.9988C25.5856 33.764 25.6389 33.5292 25.6816 33.2887C25.7296 33.0252 25.7722 32.7561 25.8042 32.4927C25.8522 32.1262 25.8682 31.7539 25.9269 31.3874C26.0762 30.454 25.9749 29.5148 25.9855 28.5814C25.9909 28.1462 25.9109 27.711 25.8469 27.2815C25.7776 26.8462 25.6656 26.4167 25.6016 25.9758C25.5376 25.4833 25.383 25.0195 25.2657 24.5442C25.095 23.8627 24.8764 23.2041 24.5938 22.5628C24.3379 21.9729 24.0979 21.3659 23.8046 20.7932C23.5487 20.2893 23.2447 19.814 22.9355 19.3444C22.5729 18.8004 22.1943 18.2678 21.7997 17.7467C21.5651 17.4432 21.2878 17.1798 21.0265 16.9049C20.7919 16.6586 20.5572 16.4067 20.312 16.1776C20.008 15.897 19.6827 15.6336 19.3681 15.3644C19.3575 15.3644 19.3095 15.3759 19.2828 15.3759Z"/>
</g>
<defs>
<filter id="filter0_i_126_150" x="0.517578" y="0.5" width="37" height="41" filterUnits="userSpaceOnUse" color-interpolation-filters="sRGB">
<feFlood flood-opacity="0" result="BackgroundImageFix"/>
<feBlend mode="normal" in="SourceGraphic" in2="BackgroundImageFix" result="shape"/>
<feColorMatrix in="SourceAlpha" type="matrix" values="0 0 0 0 0 0 0 0 0 0 0 0 0 0 0 0 0 0 127 0" result="hardAlpha"/>
<feOffset dy="4"/>
<feGaussianBlur stdDeviation="2"/>
<feComposite in2="hardAlpha" operator="arithmetic" k2="-1" k3="1"/>
<feColorMatrix type="matrix" values="0 0 0 0 0 0 0 0 0 0 0 0 0 0 0 0 0 0 0.25 0"/>
<feBlend mode="normal" in2="shape" result="effect1_innerShadow_126_150"/>
</filter>
<clipPath id="clip0_126_150">
<rect width="37" height="37" fill="white" transform="translate(0.517578 0.5)"/>
</clipPath>
</defs>
</svg>


