<svg width="37" height="38" viewBox="0 0 37 38" fill="black" xmlns="http://www.w3.org/2000/svg">
<path d="M37 32.553C36.8358 32.893 36.5646 33 36.1985 33C24.7293 32.9939 13.2601 32.9954 1.79173 32.9946C1.19511 32.9946 1 32.7899 1 32.1748C1 23.3924 1 14.6092 1 5.82674C0.999249 5.21012 1.19511 5.00535 1.79173 5.00535C13.2609 5.00458 24.7293 5.00611 36.1985 5C36.5646 5 36.8358 5.10697 37 5.44699V32.553ZM35.7781 31.7576V6.24164H2.21509V31.7576H35.7789H35.7781Z"/>
<path d="M4 30V8H34V30H4ZM25.5943 9.73986C25.4132 9.89208 25.2019 9.99895 25.1 10.1727C24.946 10.4341 25.0441 10.7009 25.2554 10.9169C27.2114 12.9105 29.1651 14.9056 31.1241 16.8961C31.4237 17.2006 31.7746 17.219 32.0282 16.9714C32.2915 16.7139 32.2757 16.3456 31.961 16.0243C30.0164 14.0361 28.0694 12.051 26.1165 10.0712C25.9904 9.9436 25.8093 9.87363 25.595 9.73986H25.5943ZM30.4503 12.3254C30.6321 12.1709 30.8442 12.0633 30.9438 11.8887C31.0924 11.6258 30.9921 11.3598 30.7808 11.1445C30.0254 10.3764 29.2753 9.60377 28.5169 8.84033C28.2098 8.53126 27.8702 8.51588 27.6121 8.77267C27.3646 9.02023 27.3752 9.39542 27.6657 9.69526C28.4143 10.4695 29.1674 11.2391 29.9296 11.9994C30.0563 12.1255 30.2367 12.1947 30.4503 12.3254ZM33.4476 14.1683C33.4001 13.9984 33.4008 13.88 33.3442 13.82C32.8726 13.3234 32.4085 12.8159 31.9022 12.3577C31.6916 12.1678 31.4033 12.2555 31.2049 12.4715C31.0057 12.6883 30.9498 12.9735 31.1415 13.1904C31.5716 13.6778 32.0267 14.1468 32.5104 14.5773C32.6289 14.6826 32.9284 14.6757 33.0907 14.6004C33.2529 14.525 33.3473 14.2982 33.4476 14.1691V14.1683Z"/>
</svg>

