<svg width="37" height="38" viewBox="0 0 37 38" fill="black" xmlns="http://www.w3.org/2000/svg">
<g filter="url(#filter0_i_126_75)">
<path d="M0 8.72338C0.244553 8.57471 0.513561 8.45983 0.733659 8.27737C0.904846 8.13545 1.06381 8.05436 1.2839 8.05436C6.26667 8.06112 11.2556 8.06112 16.2383 8.05436C18.0602 8.05436 19.8883 8.03409 21.7102 8.0003C22.077 7.99354 22.3827 8.10166 22.6701 8.32467C23.0308 8.60174 23.3976 8.87881 23.7706 9.1356C23.8806 9.20994 24.0212 9.25724 24.1496 9.264C24.5348 9.27752 24.9261 9.27076 25.3112 9.27076C27.7629 9.25724 30.2084 9.23697 32.6601 9.23021C33.5404 9.23021 34.4208 9.23021 35.3012 9.28427C35.7353 9.31131 36.1938 9.27076 36.5974 9.54107C36.8419 9.70326 36.9703 9.92626 36.9948 10.2439C37.0437 10.9737 36.7441 11.5414 36.3589 12.0888C35.8759 12.7848 35.289 13.3457 34.6409 13.8323C34.1824 14.1769 33.6994 14.481 33.2164 14.7851C32.7823 15.0554 32.3483 15.3122 31.9019 15.5622C30.8932 16.1164 29.8294 16.5218 28.7411 16.8395C27.769 17.1233 26.7847 17.3733 25.8003 17.5963C25.2929 17.7112 24.7732 17.7247 24.2597 17.7923C23.9295 17.8329 23.5994 17.8531 23.2753 17.9275C22.933 18.0153 22.6456 18.2316 22.4316 18.5559C22.291 18.7654 22.132 18.9614 22.0037 19.1777C21.6796 19.7048 21.7224 20.3265 21.6919 20.9144C21.6735 21.2928 21.698 21.678 21.7224 22.0632C21.7591 22.6511 21.9853 23.1445 22.3338 23.5972C22.7801 24.1852 23.1897 24.8136 23.6238 25.4218C23.9356 25.8611 24.2902 26.2801 24.5592 26.7464C24.8894 27.3208 25.1645 27.9357 25.4396 28.5439C25.513 28.7129 25.5313 28.9359 25.5069 29.1319C25.4519 29.6049 25.354 30.0779 25.2746 30.5442C25.2379 30.7537 25.1339 30.8281 24.9261 30.8213C24.0151 30.8078 23.1041 30.8213 22.1993 30.8281C21.6857 30.8348 21.1661 30.8483 20.6525 30.8416C20.5791 30.8416 20.4874 30.7807 20.4324 30.7199C19.9678 30.1455 19.4297 29.7063 18.7205 29.5981C18.0541 29.4968 17.3877 29.3684 16.7213 29.3549C15.5719 29.3211 14.4164 29.3481 13.2731 29.5643C12.7412 29.6657 12.2338 29.8752 11.7997 30.2401C11.6468 30.3685 11.4879 30.5375 11.4206 30.7267C11.3411 30.9564 11.2005 30.9902 11.0293 30.9902C10.4669 30.997 9.9044 30.997 9.33581 30.997C8.62049 30.997 7.91129 31.0038 7.19597 30.997C7.03701 30.997 6.87194 30.97 6.71909 30.9091C6.38283 30.7807 6.29724 30.4496 6.2789 30.105C6.24222 29.0643 6.21165 28.0236 6.19942 26.9829C6.19942 26.8139 6.26667 26.5842 6.37672 26.4896C6.74966 26.1517 6.8536 25.7124 6.89028 25.2191C6.90251 25.0907 6.9881 24.942 7.08592 24.8609C7.32436 24.6717 7.58726 24.5163 7.83792 24.3541C8.45542 23.9554 8.89562 23.354 9.32358 22.739C9.69653 22.2051 9.79435 21.5834 9.8188 20.9414C9.83103 20.5157 9.8616 20.09 9.84937 19.6642C9.83103 18.9276 9.53757 18.3532 9.04235 17.8531C8.51656 17.326 7.85015 17.1233 7.251 16.7719C6.78635 16.4948 6.29724 16.2651 5.81425 16.015C4.61594 15.4001 3.41763 14.7851 2.22543 14.1634C1.60182 13.839 0.99044 13.4876 0.36683 13.1497C0.256781 13.0889 0.177301 12.9808 0.165073 12.7983C0.140618 12.3861 0.0978212 11.9806 0.0550244 11.5684C0.0489106 11.5211 0.0183415 11.4738 0 11.4265C0 10.5209 0 9.62216 0 8.72338Z"/>
</g>
<defs>
<filter id="filter0_i_126_75" x="0" y="0.5" width="37" height="41" filterUnits="userSpaceOnUse" color-interpolation-filters="sRGB">
<feFlood flood-opacity="0" result="BackgroundImageFix"/>
<feBlend mode="normal" in="SourceGraphic" in2="BackgroundImageFix" result="shape"/>
<feColorMatrix in="SourceAlpha" type="matrix" values="0 0 0 0 0 0 0 0 0 0 0 0 0 0 0 0 0 0 127 0" result="hardAlpha"/>
<feOffset dy="4"/>
<feGaussianBlur stdDeviation="2"/>
<feComposite in2="hardAlpha" operator="arithmetic" k2="-1" k3="1"/>
<feColorMatrix type="matrix" values="0 0 0 0 0 0 0 0 0 0 0 0 0 0 0 0 0 0 0.15 0"/>
<feBlend mode="normal" in2="shape" result="effect1_innerShadow_126_75"/>
</filter>
</defs>
</svg>

