<svg width="37" height="38" viewBox="0 0 37 38" fill="black" xmlns="http://www.w3.org/2000/svg">
<path d="M14.6575 24.6629C14.6575 24.5318 14.6575 24.4424 14.6575 24.353C14.6575 17.2314 14.6575 10.1039 14.6575 2.98232C14.6575 2.47576 14.7572 2.01092 15.0974 1.62356C15.4317 1.24215 15.8541 1.00973 16.3585 1.00377C17.5669 0.979933 18.7694 1.06933 19.9601 1.26599C20.8459 1.41498 21.7316 1.56992 22.5997 1.79638C23.855 2.12415 25.0692 2.57707 26.2365 3.1611C27.791 3.93584 29.2163 4.89531 30.4188 6.17064C31.4688 7.28507 32.2666 8.5604 32.6889 10.0503C32.8942 10.7773 33.0056 11.5223 32.9998 12.2791C32.9939 13.2326 32.3135 13.9478 31.504 14.067C30.4834 14.216 29.6797 13.5485 29.492 12.6367C29.4392 12.3685 29.4392 12.0825 29.4099 11.8083C29.3278 10.9442 28.9934 10.1754 28.5066 9.47816C27.5681 8.13131 26.2776 7.21355 24.8522 6.48054C23.5676 5.81903 22.2126 5.3542 20.8048 5.0741C20.0071 4.91319 19.1976 4.81784 18.394 4.68673C18.2473 4.66289 18.2004 4.71653 18.2121 4.8536C18.218 4.90723 18.2121 4.96087 18.2121 5.0145C18.2121 13.3876 18.2063 21.7607 18.218 30.1397C18.218 31.8262 17.7077 33.3101 16.6049 34.5676C15.7837 35.5032 14.7689 36.1647 13.6016 36.57C12.6631 36.8977 11.6952 37.0467 10.698 36.9871C9.27853 36.8977 7.97045 36.4687 6.7973 35.6343C5.63587 34.806 4.78533 33.7213 4.3278 32.3507C3.92306 31.1468 3.88786 29.9252 4.25154 28.7035C4.86745 26.6534 6.21072 25.2708 8.1171 24.4186C9.19054 23.9418 10.3168 23.7571 11.4899 23.8167C12.534 23.8703 13.5195 24.1206 14.458 24.5855C14.5049 24.6153 14.5577 24.6272 14.6575 24.6629Z"/>
</svg>
