<svg width="38" height="38" viewBox="0 0 38 38" fill="black" xmlns="http://www.w3.org/2000/svg">
<g clip-path="url(#clip0_126_110)" filter="url(#filter0_i_126_110)">
<path d="M36.9965 13.549C37.0028 14.1733 36.7119 14.6041 36.3072 14.9849C35.9467 15.3283 35.6115 15.6903 35.2574 16.0462C35.1182 16.1898 34.9538 16.3084 34.8147 16.452C34.6376 16.6268 34.4795 16.8203 34.2961 16.9951C33.8724 17.4071 33.4424 17.8067 33.025 18.2187C32.8669 18.3748 32.7278 18.5496 32.5696 18.7057C32.2155 19.0615 31.855 19.4174 31.4882 19.7732C31.1151 20.1353 30.7357 20.4787 30.3689 20.8407C29.9515 21.2528 29.5467 21.6835 29.1294 22.0956C28.9902 22.2392 28.8258 22.3578 28.6867 22.5014C28.5412 22.6449 28.4084 22.8073 28.263 22.9571C28.0922 23.1319 27.9215 23.2942 27.7507 23.4628C27.308 23.9123 26.8717 24.3742 26.4163 24.8175C26.0179 25.2045 25.5942 25.5729 25.1895 25.9599C25.0187 26.1223 24.8733 26.3095 24.7025 26.4719C24.342 26.8339 23.9879 27.2085 23.6085 27.5519C23.0646 28.0388 22.5966 28.6069 21.9705 29.0127C21.5152 29.3061 21.0029 29.4372 20.4717 29.4997C19.7951 29.5808 19.15 29.4435 18.5429 29.1563C18.2646 29.0252 18.0117 28.8192 17.7714 28.6132C17.3919 28.2823 17.0314 27.9265 16.6646 27.5769C16.4812 27.3958 16.3168 27.196 16.1397 27.015C15.3556 26.2471 14.2046 26.1972 13.3951 26.9963C13.0852 27.2959 12.8006 27.6206 12.4908 27.9202C12.1303 28.2761 11.9659 28.7318 11.7698 29.175C11.5611 29.637 11.3524 30.0927 11.1311 30.5485C10.8022 31.2165 10.4987 31.9032 10.1192 32.54C9.62597 33.364 9.03151 34.1194 8.28527 34.7562C7.70345 35.2494 7.09002 35.6926 6.43864 36.0797C5.97066 36.3544 5.44576 36.5542 4.92087 36.7227C4.45921 36.8725 3.97858 36.9599 3.49795 37.0161C2.26476 37.1535 1.18967 36.2545 1.03157 35.0371C0.930387 34.2193 1.08216 33.4639 1.34777 32.696C1.5375 32.1279 1.80943 31.6098 2.12563 31.1103C2.59994 30.3674 3.15646 29.687 3.80151 29.0876C4.45289 28.4821 5.18015 27.9702 5.97066 27.5456C6.84971 27.0712 7.74772 26.6404 8.68368 26.2846C9.01886 26.1597 9.36036 26.0348 9.66391 25.8538C9.93585 25.6915 10.1698 25.4605 10.4102 25.2482C10.6441 25.0422 10.8845 24.8425 11.0931 24.6115C11.4283 24.2369 11.6433 23.7999 11.637 23.288C11.6307 22.9758 11.5295 22.6886 11.3588 22.4077C11.1437 22.0581 10.8655 21.7897 10.5619 21.5275C10.3596 21.3589 10.2141 21.1217 10.0117 20.9594C9.60699 20.6347 9.29712 20.2289 8.99989 19.8169C8.7406 19.4548 8.59515 19.0303 8.51293 18.5933C8.48131 18.4123 8.44337 18.2312 8.44337 18.0502C8.44969 17.1387 8.7659 16.3334 9.40463 15.6779C10.5872 14.4667 11.7951 13.2806 12.9967 12.0819C13.3951 11.6824 13.7935 11.2891 14.1983 10.8958C14.9066 10.1966 15.6212 9.49738 16.3295 8.79193C16.9745 8.14891 17.6133 7.49965 18.252 6.85663C18.8907 6.20737 19.5231 5.56435 20.1618 4.91509C20.4717 4.5967 20.7879 4.28455 21.0978 3.96616C21.8946 3.15458 22.6915 2.33676 23.501 1.53143C23.7539 1.28171 24.0701 1.08818 24.4306 1.01951C24.7405 0.95708 25.0187 1.04448 25.2401 1.28171C25.3096 1.35663 25.3918 1.41906 25.4677 1.48773C25.7966 1.82484 26.1191 2.16196 26.448 2.49284C26.7831 2.82371 27.131 3.13586 27.4661 3.46673C27.7128 3.7102 27.9404 3.97241 28.1871 4.21588C28.5286 4.553 28.889 4.87763 29.2369 5.21474C29.4835 5.45822 29.7112 5.72042 29.9578 5.96389C30.2867 6.28853 30.6345 6.59443 30.9633 6.91906C31.21 7.16253 31.4376 7.42473 31.6843 7.66821C32.0258 8.00533 32.3926 8.32996 32.7341 8.66707C33.24 9.16651 33.7333 9.68467 34.2392 10.1903C34.587 10.5337 34.9538 10.8583 35.3016 11.2079C35.7696 11.6824 36.2439 12.1569 36.6866 12.6625C36.9016 12.931 37.0344 13.2431 36.9965 13.549ZM23.4946 22.6137C23.5832 22.5388 23.678 22.4701 23.7666 22.3827C24.0638 22.0831 24.3547 21.7834 24.6456 21.4775C24.8796 21.2341 25.1073 20.9843 25.3476 20.7471C25.6764 20.4287 26.0243 20.1228 26.3468 19.7982C26.7642 19.3799 27.1563 18.9429 27.5673 18.5184C27.8456 18.225 28.1302 17.944 28.4021 17.6444C28.497 17.5445 28.5728 17.4196 28.6551 17.3073C28.4274 17.3073 28.2503 17.301 28.0732 17.3073C27.6622 17.326 27.2574 17.3697 26.8464 17.3759C26.6187 17.3759 26.3721 17.3697 26.1697 17.2823C25.7903 17.12 25.5942 16.6892 25.7144 16.3896C25.8282 16.1086 25.9294 15.809 26.1001 15.5655C26.391 15.1472 26.7325 14.7602 27.0551 14.3606C27.3207 14.0297 27.6179 13.7176 27.8582 13.3742C28.0353 13.1245 28.1808 12.8436 28.2756 12.5564C28.4021 12.1756 28.0669 11.7823 27.6622 11.7698C27.0487 11.7573 26.4733 11.9508 25.9167 12.1631C25.3286 12.3878 24.7531 12.6376 24.1397 12.7437C23.6843 12.8249 23.21 12.8249 22.799 12.5127C22.6093 12.3691 22.4385 12.2006 22.4891 11.9508C22.5713 11.5825 22.6915 11.2204 22.799 10.8583C22.9571 10.3402 23.1911 9.84074 23.1595 9.27264C23.1342 8.74823 22.8306 8.44233 22.4385 8.18637C22.2804 8.08648 22.1476 8.10521 22.0021 8.25504C21.2559 9.01043 20.5033 9.75334 19.7445 10.49C18.5682 11.6449 17.3793 12.7999 16.203 13.9548C15.95 14.1983 15.7224 14.4605 15.4884 14.704C18.1698 17.351 20.8385 19.9855 23.4946 22.6137ZM7.31769 32.3339C7.34931 31.229 6.36908 30.4423 5.46474 30.4611C4.38965 30.4798 3.58017 31.3601 3.59914 32.3152C3.61811 33.3578 4.42127 34.1381 5.46474 34.1631C6.38805 34.1818 7.34931 33.3391 7.31769 32.3339Z"/>
</g>
<defs>
<filter id="filter0_i_126_110" x="0.517578" y="0.5" width="37" height="41" filterUnits="userSpaceOnUse" color-interpolation-filters="sRGB">
<feFlood flood-opacity="0" result="BackgroundImageFix"/>
<feBlend mode="normal" in="SourceGraphic" in2="BackgroundImageFix" result="shape"/>
<feColorMatrix in="SourceAlpha" type="matrix" values="0 0 0 0 0 0 0 0 0 0 0 0 0 0 0 0 0 0 127 0" result="hardAlpha"/>
<feOffset dy="4"/>
<feGaussianBlur stdDeviation="2"/>
<feComposite in2="hardAlpha" operator="arithmetic" k2="-1" k3="1"/>
<feColorMatrix type="matrix" values="0 0 0 0 0 0 0 0 0 0 0 0 0 0 0 0 0 0 0.15 0"/>
<feBlend mode="normal" in2="shape" result="effect1_innerShadow_126_110"/>
</filter>
<clipPath id="clip0_126_110">
<rect width="37" height="37" fill="white" transform="translate(0.517578 0.5)"/>
</clipPath>
</defs>
</svg>
