<svg width="37" height="38" viewBox="0 0 37 38" fill="black" xmlns="http://www.w3.org/2000/svg">
<g filter="url(#filter0_i_126_66)">
<path d="M26.4686 36.9768C25.4997 37.0078 24.6425 36.8839 23.7854 36.7477C22.8971 36.6053 22.0213 36.4071 21.1393 36.209C20.512 36.0728 19.8722 35.9923 19.2325 35.9118C18.7542 35.8498 18.2697 35.7755 17.7852 35.7941C16.9902 35.8251 16.1951 35.9056 15.4063 35.9923C14.779 36.0604 14.1516 36.1471 13.5305 36.2399C13.046 36.3081 12.574 36.4257 12.0895 36.4752C11.4559 36.5434 10.8224 36.5681 10.1888 36.6053C9.86583 36.6239 9.54284 36.6362 9.22606 36.6486C8.36269 36.6796 7.54901 36.4691 6.80366 36.048C6.43098 35.8375 6.10799 35.5464 5.80364 35.2368C5.41232 34.8343 5.07691 34.3947 4.85331 33.8807C4.59864 33.2863 4.30671 32.6857 4.17628 32.0541C4.02099 31.2924 3.94025 30.4998 4.05205 29.7072C4.12658 29.1933 4.21975 28.6917 4.44336 28.2211C4.69802 27.701 4.96511 27.1932 5.36263 26.7598C5.69183 26.4006 6.0024 26.0105 6.34402 25.6638C6.67943 25.3232 7.05832 25.026 7.41857 24.7102C7.80368 24.3696 8.18878 24.029 8.56767 23.6885C9.10184 23.2055 9.6298 22.7163 10.1515 22.2271C10.3503 22.0414 10.5491 21.8556 10.7292 21.6451C11.2572 21.0382 11.7913 20.4314 12.2944 19.7998C12.7292 19.2549 13.1143 18.6604 13.5491 18.1093C13.8038 17.7874 14.0895 17.4777 14.4001 17.2115C15.1392 16.5923 15.9964 16.2022 16.9591 16.0783C17.3132 16.035 17.6672 15.9854 18.0213 16.004C18.6362 16.0412 19.2387 16.1155 19.8412 16.3074C20.6176 16.5613 21.2139 17.0443 21.748 17.6202C22.1269 18.0288 22.4189 18.5242 22.7605 18.9701C23.0835 19.3849 23.4251 19.7874 23.7481 20.2023C24.4934 21.1683 25.332 22.0599 26.214 22.9021C26.6798 23.3479 27.1829 23.7628 27.6674 24.1962C27.9531 24.4501 28.2451 24.704 28.5246 24.964C29.065 25.4718 29.6178 25.961 30.1209 26.4997C30.5122 26.9208 30.8414 27.3976 31.1706 27.8682C31.4936 28.3388 31.7172 28.8713 31.8476 29.4286C31.9097 29.6825 31.9346 29.9425 31.9594 30.1964C31.9843 30.5184 32.0091 30.8404 31.9967 31.1562C31.9843 31.4472 31.9159 31.7321 31.8973 32.0231C31.8663 32.5556 31.6551 33.0324 31.4625 33.5216C31.1954 34.1965 30.8165 34.7972 30.3445 35.3483C29.9035 35.856 29.3631 36.2276 28.7668 36.5062C28.0153 36.8777 27.214 37.0697 26.4686 36.9768Z" />
<path d="M2 14.2882C2.02445 13.5572 2.20175 12.8699 2.39127 12.1701C2.53799 11.6265 2.80088 11.1579 3.08821 10.6892C3.4 10.1769 3.80961 9.75826 4.31704 9.45835C4.73276 9.21467 5.17905 9.04596 5.68036 9.00847C6.30394 8.95849 6.87861 9.13344 7.39827 9.43335C7.99128 9.77076 8.46202 10.2644 8.8594 10.8392C9.40962 11.6327 9.72753 12.52 9.89871 13.4572C10.021 14.1383 10.021 14.8381 9.95984 15.5379C9.91093 16.1127 9.7581 16.6563 9.54412 17.1812C9.39128 17.5498 9.25067 17.9372 9.03058 18.2683C8.75547 18.687 8.41311 19.0556 8.00962 19.3618C7.5939 19.6742 7.12927 19.8866 6.63407 19.9679C6.11442 20.0491 5.59477 19.9741 5.09346 19.7679C4.31092 19.4493 3.71791 18.8869 3.24716 18.2121C2.92315 17.7497 2.66638 17.2124 2.46463 16.6751C2.28734 16.1814 2.22009 15.6378 2.11616 15.1192C2.06725 14.8381 2.03668 14.5632 2 14.2882Z" />
<path d="M28 7.00203C27.9277 7.45365 27.8434 7.90527 27.7952 8.35689C27.7471 8.82123 27.5423 9.2156 27.3977 9.64178C27.1629 10.3224 26.7895 10.9076 26.3257 11.4228C26.0065 11.7727 25.6753 12.1225 25.2959 12.3897C24.6756 12.8286 23.9769 13.0575 23.2181 12.9876C22.7604 12.943 22.3207 12.8286 21.9112 12.5423C21.3391 12.1352 20.9054 11.62 20.5923 10.9776C20.261 10.2842 20.1105 9.54636 20.0261 8.78307C19.9298 7.89891 20.1165 7.05928 20.3152 6.20693C20.4838 5.49452 20.785 4.83935 21.1644 4.2478C21.6221 3.53538 22.1581 2.8675 22.929 2.49857C23.1157 2.40952 23.2904 2.29502 23.4771 2.21233C24.0853 1.94518 24.7117 1.9579 25.3441 2.09784C25.4464 2.12328 25.5368 2.21233 25.6271 2.2823C25.9945 2.55582 26.3318 2.86114 26.5967 3.25551C26.8376 3.61171 27.1087 3.94248 27.3255 4.31777C27.476 4.5722 27.5724 4.8648 27.6567 5.15103C27.8314 5.75531 27.9639 6.36595 27.9398 7.00203C27.9699 6.99567 27.9819 6.99567 28 7.00203Z" />
<path d="M35 17.3398C34.9759 18.0355 34.8014 18.6893 34.6148 19.343C34.4222 20.0088 34.0551 20.5546 33.5736 21.0284C33.2185 21.3823 32.7792 21.6162 32.3158 21.7661C31.3047 22.096 30.2936 22.102 29.3186 21.6222C29.0418 21.4842 28.7408 21.3643 28.5242 21.1603C28.1209 20.7825 27.7177 20.3866 27.5311 19.8348C27.483 19.6969 27.3927 19.5769 27.3446 19.445C27.158 18.8932 27.0436 18.3174 27.0135 17.7356C26.9955 17.3398 26.9955 16.9439 27.0135 16.554C27.0316 16.2662 27.1098 15.9843 27.1399 15.7024C27.1881 15.1746 27.4108 14.7067 27.6154 14.2329C27.7478 13.921 27.9524 13.6271 28.1691 13.3692C28.3918 13.0993 28.6626 12.8594 28.9334 12.6375C29.3246 12.3196 29.7941 12.1577 30.2815 12.0497C30.6667 11.9657 31.0218 11.9897 31.401 12.1097C32.3098 12.3916 33.038 12.9254 33.6579 13.6151C34.0671 14.071 34.3801 14.5988 34.5727 15.1746C34.7232 15.6184 34.7894 16.0862 34.8796 16.548C34.9278 16.806 34.9579 17.0759 35 17.3398Z" />
<path d="M14.014 1C14.4397 1.02509 14.8208 1.15681 15.1766 1.35125C15.4942 1.52687 15.8182 1.70876 16.0978 1.93457C16.3646 2.14782 16.5996 2.41126 16.8093 2.68724C17.1587 3.14511 17.4191 3.65944 17.597 4.20512C17.7368 4.65045 17.8384 5.10833 17.9147 5.5662C17.9782 5.91118 18.0099 6.2687 17.9972 6.61367C17.9718 7.25971 17.8638 7.88694 17.6923 8.51416C17.5589 9.02222 17.3556 9.48636 17.1015 9.93169C16.7267 10.5966 16.2248 11.1548 15.5451 11.5437C14.8335 11.9514 14.0903 12.1207 13.2898 11.9075C12.8007 11.782 12.3687 11.5437 11.9748 11.23C11.6444 10.9666 11.3649 10.6593 11.1299 10.3206C10.7424 9.76234 10.4311 9.16021 10.2786 8.49535C10.1579 7.97475 10.1071 7.44161 10.0308 6.91474C9.9292 6.19343 10.1007 5.49721 10.2278 4.79472C10.3358 4.19258 10.5835 3.65316 10.8821 3.14511C11.2252 2.54925 11.6572 2.01611 12.2607 1.6335C12.6482 1.38888 13.0421 1.20071 13.4868 1.1129C13.6519 1.07527 13.8298 1.03763 14.014 1Z" />
</g>
<defs>
<filter id="filter0_i_126_66" x="0" y="0.5" width="37" height="41" filterUnits="userSpaceOnUse" color-interpolation-filters="sRGB">
<feFlood flood-opacity="0" result="BackgroundImageFix"/>
<feBlend mode="normal" in="SourceGraphic" in2="BackgroundImageFix" result="shape"/>
<feColorMatrix in="SourceAlpha" type="matrix" values="0 0 0 0 0 0 0 0 0 0 0 0 0 0 0 0 0 0 127 0" result="hardAlpha"/>
<feOffset dy="4"/>
<feGaussianBlur stdDeviation="2"/>
<feComposite in2="hardAlpha" operator="arithmetic" k2="-1" k3="1"/>
<feColorMatrix type="matrix" values="0 0 0 0 0 0 0 0 0 0 0 0 0 0 0 0 0 0 0.15 0"/>
<feBlend mode="normal" in2="shape" result="effect1_innerShadow_126_66"/>
</filter>
</defs>
</svg>

