<svg width="37" height="38" viewBox="0 0 37 38" fill="black" xmlns="http://www.w3.org/2000/svg">
<path d="M18.9815 33C14.6496 33 10.3116 33 5.97977 33C5.5108 33 5.06651 32.8441 4.62221 32.6943C4.20878 32.5571 3.8447 32.3263 3.48063 32.108C3.09805 31.8834 2.771 31.5715 2.46246 31.2409C2.02434 30.7668 1.67878 30.2241 1.4011 29.644C1.27768 29.382 1.19129 29.0826 1.11724 28.7894C1.00617 28.3652 1 27.9411 1 27.5106C1 23.0755 1 18.6341 1 14.199C1 13.675 1.1481 13.1884 1.32088 12.7019C1.53068 12.1155 1.87007 11.6102 2.24032 11.1237C2.50566 10.7806 2.82036 10.4812 3.17827 10.2254C3.49297 10.0009 3.80151 9.7763 4.15324 9.62035C4.4988 9.47064 4.84436 9.3334 5.20843 9.22112C6.04765 8.96537 6.89921 9.09013 7.75077 9.07141C8.78128 9.0527 9.81796 9.05894 10.8546 9.07141C11.0459 9.07141 11.1076 9.03399 11.1138 8.82813C11.1262 8.46634 11.1817 8.11078 11.2989 7.76145C11.3483 7.62422 11.3298 7.46203 11.336 7.31233C11.3545 7.00043 11.4409 6.70101 11.5273 6.40783C11.6383 6.03356 11.8049 5.678 12.0518 5.35986C12.3418 4.98559 12.6812 4.67993 13.0699 4.43665C13.4834 4.1809 13.9277 4 14.446 4C17.5005 4.01248 20.555 4.00624 23.6095 4C23.9983 4 24.3253 4.14971 24.6647 4.29318C24.9856 4.42418 25.2509 4.65498 25.4978 4.87954C25.7693 5.12282 26.0099 5.416 26.1889 5.75285C26.3493 6.04603 26.4357 6.35793 26.5345 6.66358C26.6208 6.94429 26.6579 7.24371 26.6826 7.54313C26.7072 7.79264 26.7504 8.04216 26.8245 8.29168C26.88 8.47257 26.88 8.67219 26.8738 8.86556C26.8677 9.04022 26.9232 9.08389 27.096 9.08389C28.7065 9.07765 30.3109 9.08389 31.9215 9.07765C32.2547 9.07765 32.5571 9.20241 32.8718 9.26479C33.2791 9.35212 33.637 9.55173 34.0134 9.72639C34.686 10.0508 35.2413 10.5311 35.7165 11.0863C36.1052 11.5479 36.4261 12.0718 36.6544 12.652C36.9136 13.3194 37 13.9994 37 14.7105C36.9938 19.1082 36.9938 23.4997 36.9938 27.8974C36.9938 28.2218 36.926 28.5274 36.8581 28.8393C36.6853 29.6253 36.2842 30.2865 35.8091 30.9103C35.519 31.2971 35.155 31.6089 34.7785 31.9146C34.433 32.1953 34.0381 32.3949 33.6616 32.5945C33.4148 32.7255 33.1124 32.8066 32.8224 32.8815C32.3658 33 31.9092 33 31.4525 33C27.2935 33 23.1406 33 18.9815 33ZM18.9877 30.1306C22.8197 30.1306 26.6579 30.1306 30.4899 30.1306C31.0206 30.1306 31.5451 30.0807 32.0696 29.9684C32.699 29.8311 33.1618 29.4631 33.5567 28.9766C34.0195 28.4027 34.1368 27.704 34.143 27.0179C34.18 24.9531 34.1738 22.8946 34.1491 20.8299C34.1244 18.7713 34.2417 16.7066 34.0812 14.6481C34.0442 14.1678 33.9146 13.7498 33.6863 13.3444C33.3469 12.7518 32.8224 12.3713 32.193 12.1529C31.8289 12.0282 31.4278 11.997 31.0514 11.9908C29.5334 11.9658 28.0093 11.9783 26.4913 11.9845C26.121 11.9845 25.794 11.841 25.4854 11.6789C25.146 11.498 24.8437 11.2547 24.6154 10.9365C24.2945 10.4999 24.0477 10.0258 24.0045 9.4644C23.9859 9.17122 23.9181 8.87804 23.8625 8.59733C23.7885 8.24177 23.7329 7.88621 23.6836 7.53065C23.628 7.15014 23.375 6.87567 22.9801 6.87567C20.3144 6.87567 17.6548 6.87567 14.989 6.87567C14.9212 6.87567 14.8594 6.86943 14.7916 6.90686C14.3596 7.11271 14.2424 7.3248 14.2547 7.82383C14.2609 8.0484 14.2053 8.27296 14.1622 8.49129C14.1128 8.7408 14.0573 8.99032 14.0264 9.23984C13.9832 9.60163 13.9215 9.96343 13.7672 10.294C13.5636 10.7307 13.2983 11.1174 12.9095 11.4106C12.5084 11.7163 12.0764 11.9658 11.5643 11.9845C9.85499 12.0469 8.13953 11.8972 6.43024 12.0594C6.09085 12.0906 5.7638 12.1654 5.4676 12.2964C4.78265 12.6021 4.31985 13.1572 4.04834 13.8496C3.8879 14.2489 3.8447 14.698 3.8447 15.1159C3.87556 19.2953 3.72746 23.481 3.91258 27.6604C3.92492 27.8724 3.96812 28.0845 4.04217 28.2654C4.25814 28.7832 4.56051 29.2261 5.02331 29.5754C5.58485 30.0058 6.23894 30.1243 6.89304 30.1306C10.9225 30.143 14.9582 30.1306 18.9877 30.1306Z"/>
<path d="M26.9981 20.8469C27.0217 23.0424 26.3247 24.8189 24.9839 26.3121C23.2946 28.189 21.1386 29.0979 18.6164 28.9917C16.7204 28.909 15.0369 28.2126 13.6311 26.9201C11.6583 25.1081 10.8195 22.83 11.0322 20.1859C11.1562 18.6986 11.7055 17.3352 12.6388 16.1548C14.399 13.9297 16.7145 12.891 19.5497 13.009C20.1817 13.0385 20.8196 13.1389 21.4162 13.3454C22.9284 13.8589 24.2456 14.7088 25.2438 15.9718C26.4015 17.4414 27.0395 19.1117 26.9981 20.8469ZM13.8497 20.9885C13.8615 21.3131 13.832 21.6437 13.9206 21.9683C13.9737 22.1748 13.9974 22.405 14.0741 22.5998C14.2159 22.9598 14.3695 23.3198 14.5703 23.6621C14.783 24.0222 15.0369 24.3291 15.3087 24.6242C15.6276 24.9724 16.0175 25.2439 16.425 25.4859C16.8031 25.7101 17.2047 25.8518 17.6182 25.9757C17.8426 26.0407 18.0789 26.0407 18.2975 26.0997C18.6932 26.2118 19.1008 26.1941 19.4847 26.1469C20.0518 26.0761 20.6129 25.958 21.1445 25.6983C21.6702 25.4445 22.1546 25.1258 22.574 24.7245C22.9106 24.3999 23.2001 24.034 23.4422 23.6208C23.6785 23.2195 23.8498 22.8064 23.9739 22.3696C24.0447 22.1276 24.1392 21.8738 24.1333 21.6319C24.1274 21.1184 24.216 20.599 24.0743 20.0796C24.027 19.9026 23.9798 19.7137 23.9561 19.5307C23.9384 19.3596 23.8262 19.2297 23.7848 19.0704C23.7258 18.8343 23.6017 18.6218 23.4777 18.4153C23.3182 18.1556 23.1351 17.9136 22.9402 17.6716C22.6744 17.3352 22.3731 17.0578 22.0423 16.8158C21.747 16.5974 21.4221 16.4204 21.0795 16.261C20.7015 16.0899 20.3058 15.9659 19.91 15.8774C19.4316 15.7771 18.9354 15.8184 18.4451 15.8302C18.1911 15.842 17.9194 15.8656 17.6891 15.96C17.4115 16.0722 17.1161 16.1489 16.8385 16.2787C16.3423 16.5089 15.8993 16.804 15.4918 17.1581C15.3027 17.3234 15.1551 17.5241 14.9897 17.707C14.7593 17.9608 14.5762 18.2323 14.4285 18.5274C14.2277 18.9169 14.0387 19.3124 13.9737 19.7668C13.9265 20.056 13.8202 20.3334 13.8379 20.6285C13.8556 20.7525 13.8497 20.8705 13.8497 20.9885Z"/>
<path d="M30.5066 13.0012C31.2706 13.0012 32.0419 13.7308 31.9982 14.4969C31.9473 15.3652 31.4089 15.9853 30.4921 15.9999C29.7426 16.0072 28.9786 15.4235 29.0005 14.4239C29.0077 13.7892 29.7499 12.9647 30.5066 13.0012Z"/>
</svg>

