<svg width="37" height="38" viewBox="0 0 37 38" fill="black" xmlns="http://www.w3.org/2000/svg">
<g filter="url(#filter0_i_126_148)">
<path d="M28.3761 26.6244C28.3024 27.2658 28.334 27.9126 28.1919 28.5595C28.034 29.2817 27.8604 29.9878 27.5867 30.667C27.3341 31.2922 27.0237 31.9013 26.65 32.4619C26.2922 33.0009 25.8817 33.5022 25.4344 33.9657C24.8871 34.5317 24.2714 35.0168 23.6031 35.4426C23.0716 35.7822 22.5085 36.0571 21.9296 36.2996C21.4718 36.4883 20.9929 36.6392 20.5035 36.7308C20.2299 36.7793 19.9352 36.7847 19.6721 36.8602C19.3353 36.9572 19.0037 36.9033 18.6722 36.968C18.3986 37.0219 18.1039 36.9626 17.8197 36.941C17.4671 36.9141 17.1145 36.8656 16.7672 36.8117C16.5146 36.7739 16.2725 36.7146 16.0252 36.6607C15.52 36.5422 15.0306 36.3697 14.557 36.1595C14.0834 35.9493 13.6256 35.6959 13.1835 35.421C12.652 35.0707 12.1679 34.6718 11.7048 34.2406C11.2627 33.831 10.8786 33.3728 10.5155 32.8877C10.1997 32.4619 9.91029 32.0145 9.66822 31.5509C9.46825 31.1736 9.26301 30.7909 9.1525 30.3651C9.09988 30.1495 8.99463 29.9501 8.93148 29.7399C8.78413 29.217 8.64731 28.6942 8.57364 28.1552C8.53154 27.8695 8.48944 27.5785 8.48944 27.2928C8.48944 26.9586 8.47365 26.6244 8.48944 26.2902C8.51049 25.9345 8.54732 25.5895 8.61574 25.2446C8.65257 25.0451 8.71572 24.8457 8.76835 24.6463C8.95253 23.9563 9.18934 23.288 9.47351 22.6412C9.72084 22.0698 9.97344 21.5038 10.2523 20.9541C10.5207 20.4204 10.7944 19.8922 11.068 19.364C11.3522 18.8196 11.6416 18.2806 11.9311 17.7416C12.2205 17.2026 12.5204 16.6636 12.8099 16.1192C13.0625 15.6448 13.3045 15.1651 13.5519 14.6854C13.7992 14.2003 14.0465 13.7152 14.2886 13.2301C14.6938 12.427 15.0727 11.6131 15.4411 10.7884C15.6779 10.2494 15.9147 9.71036 16.1305 9.16596C16.2883 8.75632 16.4515 8.35206 16.5883 7.93164C16.7093 7.54894 16.8883 7.18242 17.004 6.79972C17.083 6.53022 17.1566 6.26071 17.2356 5.9966C17.3198 5.70015 17.4198 5.40369 17.5145 5.10724C17.646 4.69759 17.7513 4.27717 17.8355 3.85674C17.8828 3.62497 17.9249 3.39319 17.9934 3.1722C18.0933 2.85419 18.1197 2.53078 18.1775 2.20738C18.2407 1.83007 18.3565 1.45816 18.367 1.07546C18.367 1.03234 18.388 1 18.4249 1C18.4617 1 18.4565 1.04312 18.4617 1.07007C18.5301 1.48511 18.6091 1.90014 18.6775 2.31518C18.7301 2.64397 18.788 2.97277 18.8722 3.29617C19.0037 3.78667 19.1037 4.28256 19.23 4.77305C19.3405 5.1827 19.4721 5.58156 19.5931 5.99121C19.6668 6.23915 19.7194 6.49249 19.8036 6.73504C20.0457 7.41419 20.2878 8.08795 20.5456 8.76171C20.793 9.40852 21.0613 10.0499 21.3297 10.6914C21.4771 11.0363 21.6507 11.3651 21.8033 11.7047C22.0138 12.179 22.2296 12.648 22.4664 13.1061C22.6453 13.4511 22.819 13.796 22.9927 14.1464C23.1716 14.5075 23.3558 14.8633 23.5452 15.219C23.7768 15.6556 24.003 16.0922 24.2398 16.5234C24.524 17.0355 24.7977 17.5583 25.0766 18.0758C25.4239 18.728 25.7817 19.3748 26.1238 20.0324C26.308 20.3773 26.4711 20.7385 26.6395 21.0888C26.7974 21.4122 26.9658 21.7248 27.1026 22.0536C27.2868 22.4956 27.4973 22.9268 27.6552 23.3796C27.8499 23.9509 28.0551 24.5223 28.1867 25.1152C28.2709 25.4979 28.3498 25.8752 28.3445 26.2687C28.3445 26.3765 28.3919 26.4951 28.3761 26.6244Z"/>
</g>
<defs>
<filter id="filter0_i_126_148" x="0" y="0.5" width="37" height="41" filterUnits="userSpaceOnUse" color-interpolation-filters="sRGB">
<feFlood flood-opacity="0" result="BackgroundImageFix"/>
<feBlend mode="normal" in="SourceGraphic" in2="BackgroundImageFix" result="shape"/>
<feColorMatrix in="SourceAlpha" type="matrix" values="0 0 0 0 0 0 0 0 0 0 0 0 0 0 0 0 0 0 127 0" result="hardAlpha"/>
<feOffset dy="4"/>
<feGaussianBlur stdDeviation="2"/>
<feComposite in2="hardAlpha" operator="arithmetic" k2="-1" k3="1"/>
<feColorMatrix type="matrix" values="0 0 0 0 0 0 0 0 0 0 0 0 0 0 0 0 0 0 0.25 0"/>
<feBlend mode="normal" in2="shape" result="effect1_innerShadow_126_148"/>
</filter>
</defs>
</svg>

