<svg width="37" height="38" viewBox="0 0 37 38" fill="black" xmlns="http://www.w3.org/2000/svg">
<g filter="url(#filter0_i_126_97)">
<path d="M28.6554 3C29.3726 3.01824 29.9927 3.31 30.4607 3.86921C30.7403 4.20352 30.8923 4.59862 30.9713 5.04234C31.0382 5.41312 30.9774 5.74743 30.8984 6.08175C30.7707 6.62272 30.4243 7.0239 29.9866 7.36429C29.6583 7.6135 29.2815 7.72899 28.9046 7.80193C28.5459 7.87487 28.1934 7.96605 27.8347 8.03291C27.2755 8.13624 26.7223 8.29428 26.1631 8.40977C25.8105 8.48271 25.4641 8.57997 25.1054 8.64683C24.838 8.70153 24.5644 8.77447 24.297 8.85349C24.0721 8.92036 23.8289 8.92036 23.5979 8.98722C23.2271 9.10271 22.8381 9.13918 22.4612 9.24859C22.2485 9.30937 22.0296 9.38231 21.8047 9.38839C21.671 9.39447 21.6771 9.4431 21.7378 9.53427C22.0235 9.978 22.291 10.4278 22.5524 10.8837C22.8442 11.3821 23.1116 11.8927 23.4277 12.3729C23.7864 12.9139 24.0964 13.4852 24.4368 14.0384C24.6678 14.4091 24.8684 14.8103 25.0993 15.1811C25.3911 15.6491 25.6586 16.1354 25.9504 16.6034C26.1813 16.9742 26.4123 17.3572 26.6251 17.7462C26.7831 18.0379 26.9655 18.3176 27.1357 18.6032C27.3424 18.9558 27.549 19.3144 27.7618 19.6609C28.0049 20.056 28.2177 20.4632 28.473 20.8522C28.704 21.1987 28.862 21.5877 29.1295 21.9099C29.166 21.9524 29.172 21.995 29.1356 22.0314C29.093 22.074 29.0444 22.0679 28.9897 22.0497C28.6432 21.9403 28.3028 21.9585 27.9563 22.0436C27.9138 22.0558 27.8651 22.0618 27.8165 22.0679C27.16 22.1165 26.5461 22.2989 25.9564 22.6028C25.3243 22.925 24.8197 23.393 24.2848 23.8367C23.9869 24.0859 23.7256 24.3716 23.3912 24.5722C23.0387 24.7789 22.6618 24.8944 22.2545 24.9552C21.6223 25.0463 21.0266 24.9308 20.4735 24.6512C20.1331 24.481 19.8413 24.2136 19.5617 23.9461C18.9721 23.393 18.352 22.8763 17.6226 22.5177C17.2518 22.3354 16.8506 22.226 16.4433 22.1409C16.1759 22.0801 15.8962 22.0922 15.6288 22.0254C15.3492 21.9585 15.027 21.9342 14.7231 22.0618C14.5529 22.1348 14.3523 22.0801 14.1638 22.1105C13.5803 22.2077 13.0454 22.4144 12.5408 22.7122C12.0424 22.9979 11.5986 23.3505 11.1853 23.7456C10.8388 24.0738 10.4741 24.3899 10.0607 24.633C9.88445 24.7363 9.67778 24.8032 9.48326 24.8761C8.99089 25.0585 8.48636 25.0038 8.00007 24.9369C7.61103 24.8822 7.24631 24.6756 6.91807 24.4324C6.48648 24.1163 6.13392 23.7273 5.72665 23.393C5.24036 22.9918 4.72367 22.6393 4.13404 22.3962C4.07325 22.3718 4.00031 22.3597 4.00031 22.2685C3.99423 22.1773 4.07933 22.1895 4.12796 22.1652C4.6568 21.8673 5.19781 21.5877 5.71449 21.2777C6.19471 20.992 6.681 20.7246 7.16729 20.4511C7.763 20.1107 8.34047 19.7521 8.94834 19.436C9.82975 18.9679 10.6808 18.4513 11.5561 17.9711C11.9269 17.7705 12.2855 17.5517 12.6563 17.345C12.8873 17.2174 13.1244 17.1019 13.3493 16.9742C13.8052 16.7189 14.255 16.4576 14.7109 16.2023C15.2884 15.874 15.878 15.558 16.4555 15.2297C17.1728 14.8225 17.8901 14.4091 18.6073 14.0019C18.656 13.9715 18.6742 13.9593 18.6438 13.8864C18.4858 13.5399 18.273 13.2299 18.0906 12.8956C17.9204 12.5735 17.7442 12.2574 17.5679 11.9413C17.0694 11.0417 16.5649 10.136 16.0604 9.23643C15.8598 8.86565 15.6774 8.48879 15.6227 8.08154C15.5558 7.57703 15.6409 7.08468 15.9084 6.64096C16.1516 6.23371 16.4737 5.89332 16.9053 5.67449C17.1181 5.57116 17.343 5.49822 17.5679 5.43136C17.9144 5.32802 18.273 5.29763 18.6195 5.18822C18.8383 5.11528 19.0875 5.0545 19.3368 5.03626C19.5131 5.0241 19.6833 4.9694 19.8413 4.89646C19.8474 4.89646 19.8535 4.8843 19.8595 4.8843C20.2121 4.86607 20.5464 4.76881 20.8808 4.67156C21.1482 4.59254 21.4339 4.58646 21.7074 4.48921C21.9202 4.41019 22.1573 4.39803 22.3883 4.34332C22.68 4.27646 22.9718 4.2096 23.2636 4.1245C23.4824 4.06372 23.7195 4.05156 23.9444 3.9847C24.3274 3.87529 24.7225 3.8145 25.1115 3.71725C25.3243 3.66254 25.5431 3.61392 25.7619 3.57137C26.0659 3.51059 26.3759 3.44372 26.6737 3.34647C26.8865 3.27961 27.1175 3.27961 27.3363 3.21274C27.6159 3.13372 27.9016 3.09725 28.1873 3.02431C28.3393 2.99392 28.4852 3.02431 28.6554 3Z"/>
<path d="M34.3455 33.9986C34.1138 34.0111 33.7929 33.9361 33.4779 33.8424C33.3591 33.8049 33.2283 33.7862 33.1036 33.7549C32.4202 33.5924 31.8556 33.205 31.297 32.7863C30.9345 32.5175 30.6315 32.1801 30.2809 31.9051C29.9956 31.6801 29.752 31.3926 29.4132 31.2239C29.2766 31.1552 29.1399 31.1114 29.0032 31.0489C28.6585 30.9052 28.2842 30.9677 27.9217 30.9552C27.476 30.9489 27.0719 31.1177 26.7213 31.3739C26.3885 31.6239 26.0795 31.9051 25.7823 32.2051C25.3069 32.68 24.7602 33.0737 24.1779 33.3987C23.8035 33.6112 23.3934 33.7174 22.9834 33.8362C22.3892 34.0049 21.783 34.0236 21.1888 33.9674C20.9927 33.9486 20.7609 33.9424 20.5529 33.8487C20.3865 33.7737 20.1785 33.7862 19.9943 33.7049C19.7328 33.5924 19.4654 33.5049 19.2158 33.3612C18.6572 33.0487 18.164 32.6425 17.6946 32.1988C17.5757 32.0863 17.4628 31.9551 17.338 31.8489C16.9696 31.5239 16.5952 31.1927 16.1198 31.0427C15.6741 30.8989 15.2046 30.9052 14.7589 30.9677C14.2063 31.0427 13.719 31.3364 13.309 31.7489C12.792 32.2676 12.2571 32.7613 11.6629 33.1675C11.4073 33.3425 11.1221 33.5237 10.8072 33.6174C10.4031 33.7299 9.99897 33.8362 9.58893 33.9236C9.14324 34.0174 8.70349 34.0049 8.26374 33.9736C7.96068 33.9549 7.63978 33.9111 7.34859 33.7737C7.28917 33.7487 7.2238 33.7424 7.15843 33.7299C6.82565 33.6674 6.54041 33.4862 6.24328 33.33C5.79759 33.0987 5.40538 32.7863 5.03695 32.4425C4.78142 32.2051 4.52589 31.9613 4.27036 31.7239C3.97917 31.4676 3.65828 31.2739 3.30767 31.1114C2.99866 30.9739 2.69559 30.9864 2.38063 30.9489C1.91711 30.8927 1.4536 30.7802 1.18618 30.3115C1.0911 30.1428 0.984135 29.9615 1.00196 29.7428C1.01385 29.5616 0.996021 29.3804 1.00791 29.2054C1.01979 28.9054 1.15053 28.6742 1.35852 28.4554C1.56056 28.2367 1.82203 28.1617 2.05379 28.0117C2.07756 27.993 2.11916 28.0055 2.14887 28.0055C2.23207 28.0055 2.32121 28.0117 2.4044 28.0055C2.79661 27.9867 3.17099 28.0867 3.55131 28.1555C3.98512 28.2367 4.38327 28.393 4.76953 28.5867C5.10826 28.7554 5.41727 28.9804 5.72034 29.2179C6.21357 29.6053 6.64737 30.0615 7.12278 30.474C7.4615 30.7615 7.84182 30.9364 8.23997 31.0239C8.59653 31.0989 8.98873 31.1052 9.33934 31.0302C9.86229 30.9177 10.3377 30.6552 10.7418 30.2553C11.2588 29.7491 11.7877 29.2429 12.3938 28.8554C12.685 28.6679 12.9762 28.4679 13.3208 28.3742C13.7012 28.268 14.0815 28.1742 14.4618 28.0805C14.86 27.9805 15.2462 28.043 15.6325 28.018C15.9118 27.9992 16.1733 28.1055 16.4407 28.168C16.714 28.2305 16.9874 28.2805 17.2429 28.393C17.6292 28.5554 18.0036 28.7492 18.3482 29.0054C18.7523 29.3054 19.1208 29.6491 19.4951 29.999C19.6853 30.174 19.8636 30.3803 20.0835 30.524C20.3687 30.7177 20.6599 30.8615 20.9808 30.9739C21.4146 31.1239 21.8603 31.0802 22.2822 31.0302C22.7398 30.9802 23.1439 30.7052 23.5064 30.3865C23.8213 30.1115 24.1422 29.8366 24.4274 29.5303C24.7008 29.2366 25.0276 29.0366 25.3426 28.8367C25.7348 28.5804 26.1627 28.343 26.644 28.2555C26.9055 28.2055 27.1729 28.1492 27.4284 28.0805C27.892 27.9555 28.3495 28.0055 28.7952 28.0367C29.128 28.0617 29.4964 28.1055 29.8114 28.2367C30.1739 28.3867 30.5364 28.5304 30.881 28.7429C31.2911 28.9991 31.6476 29.3179 32.028 29.6116C32.2419 29.7741 32.4202 29.9928 32.6163 30.1803C32.8659 30.4052 33.1154 30.6302 33.4126 30.7927C33.5849 30.8865 33.781 30.9114 33.9593 30.9802C34.3218 31.1114 34.714 31.0114 35.0705 31.1489C35.4152 31.2802 35.7183 31.4739 35.8668 31.8676C36.0451 32.3613 36.057 32.8363 35.8252 33.3112C35.6707 33.6174 35.4152 33.7862 35.124 33.9236C34.8982 34.0174 34.6724 33.9924 34.3455 33.9986Z"/>
<path d="M2.62715 23.0136C2.8827 22.9696 3.19768 23.045 3.51265 23.0639C3.67906 23.0764 3.83952 23.1644 4.00592 23.221C4.5705 23.4222 5.09348 23.6925 5.57486 24.0633C6.03841 24.4216 6.43659 24.8491 6.88231 25.2262C7.04871 25.3708 7.21512 25.5217 7.3934 25.6348C7.63112 25.7794 7.88073 25.8925 8.16005 25.9554C8.51068 26.0371 8.84943 26.0434 9.18818 26.012C9.62201 25.9742 10.0321 25.8108 10.3946 25.5279C10.9176 25.1194 11.3395 24.6039 11.8506 24.1828C12.3974 23.7365 13.0154 23.4473 13.6692 23.2022C14.4358 22.9193 15.2143 23.0261 15.9929 23.0136C16.391 23.0073 16.7773 23.1581 17.1517 23.2964C17.5677 23.4536 17.96 23.6547 18.3225 23.9187C18.6315 24.1513 18.9346 24.3965 19.2199 24.6668C19.5111 24.9433 19.8023 25.2262 20.1173 25.4714C20.4144 25.6977 20.7235 25.8799 21.1097 25.9554C21.4723 26.0245 21.8407 26.0497 22.1854 25.9994C22.6906 25.924 23.1541 25.6977 23.5523 25.3268C24.0931 24.8239 24.6101 24.2833 25.2104 23.8747C25.6323 23.5856 26.0899 23.3719 26.5713 23.2022C27.3439 22.9319 28.1343 23.0199 28.9188 23.0136C29.2932 23.0136 29.6438 23.1707 30.0004 23.2713C30.4342 23.397 30.8027 23.6485 31.1831 23.8685C31.4327 24.013 31.6347 24.2393 31.8665 24.4216C32.3538 24.8113 32.7461 25.3205 33.2809 25.6474C33.5127 25.7919 33.7682 25.8799 34.0357 25.9554C34.3031 26.0308 34.5587 25.9805 34.8083 26.0245C35.1708 26.0937 35.4917 26.2634 35.7354 26.5463C35.9077 26.7537 36.0206 27.0114 35.9968 27.3069C35.9909 27.42 35.9909 27.5331 35.9968 27.64C36.0384 28.1806 35.6581 28.6395 35.2302 28.828C34.9568 28.9475 34.6835 29.0418 34.4041 28.9789C34.1129 28.916 33.8158 28.9098 33.5186 28.8595C33.1264 28.7966 32.7758 28.6332 32.4192 28.4823C32.229 28.4006 32.0567 28.2812 31.8724 28.1806C31.4861 27.9732 31.1831 27.6463 30.8384 27.3823C30.6601 27.244 30.5115 27.0554 30.3451 26.8983C29.9885 26.5777 29.6438 26.2634 29.1803 26.0811C28.8178 25.9365 28.4612 25.8862 28.0868 25.8925C27.4212 25.9114 26.8447 26.1628 26.3455 26.6343C25.9473 27.0114 25.5432 27.376 25.1391 27.7469C24.8716 27.992 24.5804 28.2057 24.2714 28.3692C24.0099 28.5075 23.7187 28.608 23.4275 28.7023C23.065 28.8155 22.7025 28.8972 22.3221 28.9098C22.2032 28.916 22.0963 28.9915 21.9655 28.9978C21.4307 29.0166 20.9196 28.8909 20.3966 28.8092C20.1113 28.7652 19.838 28.6646 19.5883 28.5515C19.2971 28.4195 19.0178 28.2435 18.7444 28.0549C18.3522 27.7846 18.0135 27.4514 17.6628 27.1308C17.437 26.9234 17.2231 26.7034 16.9853 26.5211C16.3613 26.0371 15.6719 25.7982 14.8815 25.9302C14.5487 25.9868 14.2635 26.1188 13.9663 26.2697C13.5325 26.4897 13.2234 26.8606 12.8669 27.1748C12.4925 27.5143 12.1181 27.86 11.6902 28.1303C11.2385 28.4132 10.7809 28.6583 10.2698 28.7903C9.99642 28.8595 9.7171 28.8846 9.44372 28.9223C9.18818 28.96 8.93263 29.0229 8.67114 28.9915C8.08279 28.916 7.50038 28.8595 6.92391 28.6458C6.47819 28.476 6.07407 28.2435 5.68778 27.9732C5.32526 27.7154 4.98651 27.4137 4.66559 27.0868C4.35655 26.7725 4.03563 26.4583 3.66123 26.2382C3.22739 25.9868 2.74601 25.8674 2.24086 25.8988C1.914 25.9177 1.6644 25.7291 1.42073 25.5342C1.09387 25.2639 1.03444 24.9119 1.00473 24.497C0.957184 23.8182 1.27216 23.4096 1.77137 23.1016C1.8724 23.0387 1.99126 23.0261 2.11012 23.0199C2.25869 23.0136 2.41321 23.0136 2.62715 23.0136Z"/>
<path d="M30.9592 17.98C30.6765 18.014 30.4051 18.0083 30.1619 17.9347C29.7831 17.8272 29.4098 17.7027 29.0592 17.5102C28.6238 17.2725 28.245 16.9726 27.9283 16.6047C27.6173 16.2425 27.3628 15.8293 27.2045 15.3709C27.0857 15.037 26.9896 14.703 27.0009 14.3465C27.0066 14.1484 27.0009 13.9446 27.0009 13.7466C27.0009 13.2655 27.1083 12.8184 27.3176 12.3826C27.408 12.1901 27.5042 11.9864 27.6003 11.794C27.6964 11.6072 27.8435 11.4204 28.0131 11.2733C28.2506 11.0639 28.4429 10.7922 28.7256 10.6507C28.997 10.5205 29.2572 10.3621 29.5512 10.2602C29.7944 10.1753 30.0432 10.1244 30.292 10.0621C30.5917 9.98286 30.8857 9.99984 31.1798 10.0055C31.6265 10.0168 32.0563 10.13 32.4804 10.2941C32.8423 10.4356 33.1759 10.6281 33.4643 10.8658C33.7244 11.0808 33.9846 11.3185 34.1825 11.6072C34.3634 11.8675 34.5331 12.1392 34.6575 12.4278C34.7479 12.6486 34.8045 12.8919 34.8893 13.1183C34.9741 13.3504 34.9063 13.5881 34.9798 13.8201C35.042 14.0069 34.9402 14.2163 34.9459 14.4087C34.9572 14.703 34.8667 14.9747 34.7819 15.2407C34.7253 15.4275 34.6349 15.6086 34.5444 15.7897C34.3804 16.1123 34.1768 16.4066 33.9337 16.6783C33.5774 17.0745 33.1646 17.3971 32.6783 17.6121C32.1185 17.8555 31.5587 18.0536 30.9592 17.98Z"/>
</g>
<defs>
<filter id="filter0_i_126_97" x="0" y="0.5" width="37" height="41" filterUnits="userSpaceOnUse" color-interpolation-filters="sRGB">
<feFlood flood-opacity="0" result="BackgroundImageFix"/>
<feBlend mode="normal" in="SourceGraphic" in2="BackgroundImageFix" result="shape"/>
<feColorMatrix in="SourceAlpha" type="matrix" values="0 0 0 0 0 0 0 0 0 0 0 0 0 0 0 0 0 0 127 0" result="hardAlpha"/>
<feOffset dy="4"/>
<feGaussianBlur stdDeviation="2"/>
<feComposite in2="hardAlpha" operator="arithmetic" k2="-1" k3="1"/>
<feColorMatrix type="matrix" values="0 0 0 0 0 0 0 0 0 0 0 0 0 0 0 0 0 0 0.15 0"/>
<feBlend mode="normal" in2="shape" result="effect1_innerShadow_126_97"/>
</filter>
</defs>
</svg>

