<svg width="37" height="38" viewBox="0 0 37 38" fill="black" xmlns="http://www.w3.org/2000/svg">
<g filter="url(#filter0_i_126_54)">
<path d="M29.3696 37H7.63044C6.73 37 6 36.2673 6 35.3636V16.8182C6 15.9145 6.73 15.1818 7.63044 15.1818H9.26087V10.2727C9.26087 5.15975 13.4055 1 18.5 1C23.5945 1 27.7391 5.15975 27.7391 10.2727V15.1818H29.3696C30.27 15.1818 31 15.9145 31 16.8182V35.3636C31 36.2673 30.27 37 29.3696 37ZM16.8696 26.6348V28.8182C16.8696 29.7219 17.5996 30.4545 18.5 30.4545C19.4004 30.4545 20.1304 29.7219 20.1304 28.8182V26.6348C20.79 26.1368 21.2174 25.3449 21.2174 24.4545C21.2174 22.9507 19.9984 21.7273 18.5 21.7273C17.0016 21.7273 15.7826 22.9507 15.7826 24.4545C15.7826 25.3449 16.21 26.1368 16.8696 26.6348ZM24.4783 10.2727C24.4783 6.96433 21.7964 4.27273 18.5 4.27273C15.2036 4.27273 12.5217 6.96433 12.5217 10.2727V15.1818H24.4783V10.2727Z"/>
</g>
<defs>
<filter id="filter0_i_126_54" x="0" y="0.5" width="37" height="41" filterUnits="userSpaceOnUse" color-interpolation-filters="sRGB">
<feFlood flood-opacity="0" result="BackgroundImageFix"/>
<feBlend mode="normal" in="SourceGraphic" in2="BackgroundImageFix" result="shape"/>
<feColorMatrix in="SourceAlpha" type="matrix" values="0 0 0 0 0 0 0 0 0 0 0 0 0 0 0 0 0 0 127 0" result="hardAlpha"/>
<feOffset dy="4"/>
<feGaussianBlur stdDeviation="2"/>
<feComposite in2="hardAlpha" operator="arithmetic" k2="-1" k3="1"/>
<feColorMatrix type="matrix" values="0 0 0 0 0 0 0 0 0 0 0 0 0 0 0 0 0 0 0.15 0"/>
<feBlend mode="normal" in2="shape" result="effect1_innerShadow_126_54"/>
</filter>
</defs>
</svg>

