<svg width="37" height="38" viewBox="0 0 37 38" fill="black" xmlns="http://www.w3.org/2000/svg">
<path d="M14.6717 32.9714C14.6717 31.9714 14.6717 30.9886 14.6717 29.9771C14.567 29.9771 14.4746 29.9771 14.3822 29.9771C10.6361 29.9771 6.89012 29.9771 3.13794 29.9771C2.33082 29.9771 1.76399 29.64 1.36351 29.0114C1.1109 28.6171 1 28.2 1 27.7429C1.00616 20.48 1 13.2171 1.00616 5.95429C1.00616 5.17143 1.62228 4.34286 2.41092 4.08571C2.55879 4.03429 2.72514 4.01143 2.88533 4.01143C13.6182 4.00571 24.3449 4.00571 35.0715 4C35.4782 4 35.7986 4.15429 36.0881 4.36571C36.5687 4.71429 36.8583 5.18286 36.9877 5.73714C37 5.8 37 5.86286 37 5.92571C37 13.2743 37 20.6286 36.9938 27.9771C36.9938 28.4514 36.7474 28.8629 36.4578 29.2457C36.236 29.5429 35.9341 29.7429 35.5768 29.8629C35.355 29.9371 35.1023 29.9714 34.8621 29.9714C31.1037 29.9771 27.3392 29.9771 23.5809 29.9771C23.4946 29.9771 23.4084 29.9771 23.3036 29.9771C23.3036 30.9771 23.3036 31.96 23.3036 32.96C23.3714 32.9657 23.4453 32.9714 23.5193 32.9714C24.1231 32.9714 24.7207 32.9714 25.3245 32.9714C26.0823 32.9714 26.4397 33.3086 26.4582 34.0057C26.4705 34.4057 26.2856 34.6857 25.9406 34.88C25.8235 34.9486 25.6757 34.9943 25.5401 34.9943C21.1657 35 16.785 35 12.4106 35C12.0779 35 11.5727 34.5829 11.5357 34.2286C11.4987 33.9086 11.5234 33.6114 11.7267 33.3371C11.9054 33.0914 12.1456 32.9714 12.4599 32.9714C13.1253 32.9657 13.7845 32.9714 14.4499 32.9714C14.53 32.9714 14.604 32.9714 14.6717 32.9714ZM2.94695 6.00571C2.94695 6.09143 2.94695 6.15429 2.94695 6.21714C2.94695 13.3543 2.94695 20.4914 2.94695 27.6286C2.94695 27.9029 2.99623 27.9486 3.29197 27.9486C13.766 27.9486 24.2463 27.9486 34.7203 27.9486C35.0038 27.9486 35.0222 27.9314 35.0222 27.6629C35.0222 20.5143 35.0222 13.3657 35.0222 6.21714C35.0222 6.14857 35.0161 6.08 35.0099 6.01143C24.3202 6.00571 13.6428 6.00571 2.94695 6.00571Z"/>
</svg>

