<svg width="37" height="38" viewBox="0 0 37 38" fill="black" xmlns="http://www.w3.org/2000/svg">
<path d="M4.55753 14.0525C4.5039 14.0525 4.45623 14.0467 4.40261 14.0467C3.67565 14.0231 2.94869 14.0055 2.22769 13.9585C1.97147 13.9408 1.68545 13.9585 1.45902 13.7762C1.19684 13.5645 1.00616 13.3234 1.0002 12.9529C0.994244 12.4766 1.11938 12.0532 1.44114 11.7122C1.74504 11.3829 2.11447 11.1359 2.59713 11.0889C3.22875 11.0301 3.84845 10.9301 4.48007 10.8654C4.78992 10.8302 5.10573 10.8537 5.35599 11.0595C5.53475 11.2065 5.6718 11.3829 5.6718 11.6299C5.66584 12.1767 5.6718 12.7236 5.6718 13.2763C5.6718 13.4704 5.75522 13.5116 5.9459 13.4527C6.24384 13.3587 6.54177 13.2881 6.84566 13.2058C6.89333 13.194 6.95292 13.1646 6.97079 13.1293C7.06613 12.9588 7.14955 12.7824 7.24489 12.6119C7.37003 12.3884 7.50707 12.1767 7.63221 11.9533C7.67988 11.8651 7.70967 11.771 7.75138 11.6828C7.97185 11.2535 8.19828 10.8243 8.42471 10.4009C8.53793 10.1892 8.66902 9.98339 8.78819 9.7717C8.86565 9.63058 8.91928 9.47769 9.0027 9.34244C9.12188 9.14839 9.24701 8.96023 9.38406 8.77794C9.51515 8.60153 9.63432 8.41336 9.78925 8.25459C9.96205 8.07231 10.1646 7.91942 10.3553 7.76065C10.5579 7.59012 10.7546 7.39607 10.975 7.25495C11.6066 6.86685 12.28 6.57872 13.0188 6.43171C13.7816 6.2847 14.5502 6.2553 15.3189 6.20238C15.9267 6.16122 16.5404 6.14946 17.1423 6.0789C18.1731 5.96129 19.2099 6.00833 20.2467 6.01421C20.9737 6.02009 21.7006 6.0789 22.4276 6.12594C23.0711 6.1671 23.7206 6.21414 24.3642 6.2847C24.9839 6.34939 25.6036 6.45523 26.1816 6.68456C26.5093 6.81393 26.7953 7.04326 27.1171 7.17851C27.4925 7.33727 27.7844 7.596 28.0764 7.85474C28.5054 8.24283 28.8808 8.67797 29.1788 9.17192C29.3456 9.44829 29.4588 9.74818 29.6138 10.0304C29.7568 10.295 29.9117 10.5479 30.0607 10.8125C30.156 10.9889 30.2335 11.1712 30.3288 11.3417C30.4778 11.624 30.6327 11.9062 30.7876 12.1826C30.9247 12.4355 31.0677 12.6883 31.2047 12.947C31.2881 13.0999 31.3477 13.2411 31.5861 13.2293C31.7648 13.2234 31.9496 13.3116 32.1283 13.3704C32.2892 13.4233 32.3369 13.3704 32.3369 13.2117C32.3309 12.6824 32.3369 12.1532 32.3369 11.624C32.3369 11.3653 32.6527 11.0183 32.9029 10.9713C33.034 10.9478 33.1651 10.8537 33.2903 10.8654C33.761 10.8948 34.2258 10.9536 34.6905 11.0066C35.0064 11.0418 35.3281 11.0595 35.638 11.1359C36.0968 11.2476 36.4603 11.4887 36.7344 11.9121C37.0144 12.3414 37.0204 12.7942 36.9846 13.2528C36.9668 13.4822 36.788 13.6527 36.5854 13.7762C36.4126 13.8879 36.2219 13.9291 36.0074 13.9349C35.2685 13.9585 34.5237 14.0055 33.7848 14.0467C33.7431 14.0467 33.7074 14.0761 33.6776 14.0878C34.0411 14.4171 34.4164 14.7111 34.7442 15.0581C35.0362 15.3638 35.2745 15.7167 35.5248 16.0636C35.8942 16.5869 36.1445 17.175 36.353 17.7747C36.4603 18.0864 36.5318 18.4098 36.5854 18.7391C36.639 19.0449 36.6569 19.3624 36.6688 19.6741C36.6807 19.9975 36.6748 20.3268 36.6748 20.6502C36.6748 23.4904 36.6748 26.3305 36.6748 29.1707C36.6748 29.547 36.5437 29.8881 36.4245 30.235C36.2934 30.6114 36.0432 30.8995 35.775 31.1759C35.34 31.6169 34.8038 31.858 34.196 31.9521C33.5048 32.0579 32.8434 31.9874 32.2475 31.5875C32.0091 31.4287 31.7708 31.2582 31.5563 31.07C31.4431 30.9701 31.3894 30.8172 31.3001 30.6878C31.2643 30.6349 31.1928 30.5996 31.169 30.5467C31.0617 30.2997 30.9783 30.041 30.8591 29.7999C30.6506 29.3589 30.7697 28.8943 30.7519 28.4357C30.7459 28.2651 30.6923 28.1946 30.5314 28.1946C30.2752 28.1946 30.013 28.1946 29.7568 28.1946C29.6435 28.1946 29.5303 28.1946 29.4171 28.1946C28.4578 28.1946 27.4984 28.1946 26.5391 28.1946C25.9194 28.1946 25.3056 28.1946 24.6859 28.1946C21.6828 28.1946 18.6796 28.1946 15.6824 28.1946C14.6098 28.1946 13.5432 28.1946 12.4707 28.1946C11.273 28.1946 10.0753 28.2063 8.87757 28.2063C8.50217 28.2063 8.12678 28.2005 7.75138 28.1887C7.5905 28.1828 7.54283 28.2475 7.54879 28.3945C7.5607 28.6121 7.55474 28.8238 7.54879 29.0413C7.54283 29.2354 7.59645 29.4471 7.44749 29.6176C7.43557 29.6352 7.43557 29.6646 7.43557 29.694C7.43557 30.188 7.14955 30.5584 6.8695 30.9171C6.50006 31.3876 6.01145 31.7051 5.43346 31.8815C4.25364 32.2284 2.87123 31.7992 2.17406 30.7819C1.96551 30.4702 1.8225 30.1468 1.7212 29.7823C1.63182 29.4706 1.62586 29.1707 1.62586 28.8649C1.60203 25.8366 1.59607 22.8141 1.60799 19.7917C1.60799 19.3801 1.66162 18.9626 1.73312 18.5568C1.80462 18.1628 1.894 17.7571 2.05489 17.3925C2.2694 16.8986 2.53754 16.4164 2.82356 15.9577C3.01423 15.652 3.27046 15.3815 3.5088 15.0992C3.59818 14.9934 3.7114 14.8993 3.81866 14.8111C4.03317 14.6288 4.24768 14.4465 4.45623 14.2583C4.50986 14.2113 4.55157 14.1525 4.59328 14.0996C4.58137 14.0878 4.56945 14.0702 4.55753 14.0525ZM29.9236 13.0647C29.7746 12.7412 29.6555 12.4531 29.5125 12.1826C29.3933 11.9474 29.2384 11.724 29.1132 11.4946C28.857 11.0242 28.6067 10.5479 28.3505 10.0716C28.2552 9.88931 28.1718 9.69526 28.0585 9.53061C27.9453 9.36596 27.7964 9.22484 27.6534 9.08371C27.4269 8.86614 27.2065 8.63681 26.9562 8.44276C26.694 8.24283 26.4139 8.05466 26.122 7.90178C25.2163 7.43724 24.2092 7.449 23.2261 7.35491C22.7851 7.31375 22.3442 7.30199 21.9032 7.27259C21.3252 7.23143 20.7472 7.16674 20.1633 7.16086C19.2814 7.1491 18.3936 7.17851 17.5117 7.19615C17.178 7.20203 16.8443 7.21967 16.5047 7.23731C16.2306 7.24907 15.9505 7.25495 15.6764 7.27847C15.1342 7.32551 14.5979 7.37843 14.0557 7.43136C13.8769 7.449 13.6981 7.44312 13.5253 7.4784C12.9176 7.58424 12.3336 7.76653 11.8092 8.08995C11.5709 8.23695 11.3445 8.40748 11.118 8.57801C10.9571 8.70149 10.8082 8.85438 10.6592 8.98963C10.397 9.23072 10.2123 9.53061 10.0276 9.83051C9.84883 10.1245 9.71178 10.4479 9.54494 10.7478C9.32447 11.1536 9.09804 11.5534 8.87757 11.9592C8.73456 12.2179 8.59155 12.4825 8.4545 12.7471C8.40683 12.8353 8.38896 12.9353 8.34725 13.0588C8.47834 13.0588 8.57964 13.0647 8.68689 13.0588C9.24701 13.0235 9.80712 12.9764 10.3732 12.9412C10.8916 12.9118 11.41 12.8882 11.9284 12.8588C12.4766 12.8294 13.0308 12.8059 13.579 12.7824C13.9603 12.7648 14.3417 12.7589 14.723 12.7412C15.2116 12.7177 15.7062 12.6824 16.1948 12.6648C16.6596 12.6472 17.1303 12.6236 17.5951 12.6295C18.7332 12.6354 19.8654 12.653 21.0035 12.6648C21.4444 12.6707 21.8854 12.6824 22.3263 12.706C22.809 12.7295 23.2976 12.7589 23.7802 12.7824C24.3284 12.8118 24.8826 12.8353 25.4308 12.8588C25.9968 12.8824 26.557 12.9118 27.123 12.9353C27.8142 12.9647 28.5054 12.9882 29.1907 13.0176C29.429 13.0176 29.6555 13.0411 29.9236 13.0647ZM19.0788 18.4686C17.3508 18.4686 15.6287 18.4686 13.9007 18.4745C13.6803 18.4745 13.4538 18.4921 13.2453 18.5568C12.8043 18.6862 12.4647 18.9743 12.3634 19.4271C12.2978 19.7152 12.3157 20.0269 12.3455 20.3268C12.3634 20.5444 12.4587 20.756 12.5302 20.9677C12.566 21.0795 12.6017 21.2088 12.6792 21.2911C12.846 21.4734 13.0367 21.6322 13.2155 21.8027C13.6386 22.2085 14.157 22.4025 14.729 22.4084C17.5653 22.4202 20.4016 22.4084 23.238 22.4143C23.7683 22.4143 24.2569 22.3084 24.7098 22.0321C25.0613 21.8204 25.3414 21.5381 25.5499 21.1912C25.6691 20.9913 25.7287 20.7619 25.824 20.5561C26.0445 20.0975 25.967 19.4683 25.7049 19.086C25.4308 18.6862 25.0077 18.4804 24.5131 18.4804C22.7017 18.4686 20.8903 18.4686 19.0788 18.4686ZM27.707 19.7094C27.7487 19.8681 27.7725 20.0328 27.8262 20.1915C27.9811 20.6561 28.3207 20.9324 28.7974 20.9913C29.1371 21.0324 29.4886 21.003 29.8342 20.9971C30.0309 20.9913 30.2275 20.9736 30.4241 20.956C30.9485 20.8972 31.4729 20.8325 31.9972 20.7678C32.5633 20.7031 33.1353 20.6561 33.7014 20.5679C34.1602 20.4973 34.5297 20.0916 34.6131 19.68C34.6965 19.2566 34.6786 18.8214 34.5297 18.3922C34.3986 18.0158 34.19 17.7159 33.8206 17.5513C33.5882 17.4455 33.3379 17.3808 33.0877 17.4337C32.468 17.5631 31.8483 17.7101 31.2345 17.8571C30.4241 18.0511 29.6138 18.251 28.7974 18.451C28.142 18.6039 27.7487 19.0743 27.707 19.7094ZM9.104 21.0559C9.55686 20.9971 9.95013 20.8913 10.2064 20.5385C10.4507 20.2033 10.5341 19.8152 10.4387 19.4095C10.3911 19.2095 10.3196 18.9802 10.1766 18.845C9.9978 18.6744 9.74754 18.5509 9.50919 18.4804C8.92524 18.3099 8.32937 18.1864 7.73946 18.0394C7.0423 17.8688 6.34513 17.6983 5.64201 17.5337C5.21894 17.4337 4.80184 17.3455 4.37281 17.5631C4.06892 17.7159 3.63394 18.2393 3.62202 18.6156C3.61606 18.7744 3.57435 18.939 3.55052 19.0978C3.53264 19.2037 3.47901 19.3271 3.51476 19.4153C3.59818 19.6447 3.69352 19.874 3.82461 20.0739C4.04508 20.4032 4.37877 20.5973 4.77204 20.6384C5.3977 20.7031 6.02336 20.7502 6.64903 20.7972C6.8695 20.8148 7.09593 20.8207 7.3164 20.8442C7.91822 20.9148 8.53197 20.9913 9.104 21.0559Z"/>
</svg>

