<svg width="496" height="496" viewBox="0 0 496 496" fill="none" xmlns="http://www.w3.org/2000/svg">
<path d="M248 0C111.104 0 0 111.104 0 248C0 384.896 111.104 496 248 496C384.896 496 496 384.896 496 248C496 111.104 384.896 0 248 0ZM248 446.4C138.632 446.4 49.6 357.368 49.6 248C49.6 138.632 138.632 49.6 248 49.6C357.368 49.6 446.4 138.632 446.4 248C446.4 357.368 357.368 446.4 248 446.4ZM344.224 155.992L198.4 301.816L151.776 255.192C142.104 245.52 126.48 245.52 116.808 255.192C107.136 264.864 107.136 280.488 116.808 290.16L181.04 354.392C190.712 364.064 206.336 364.064 216.008 354.392L379.44 190.96C389.112 181.288 389.112 165.664 379.44 155.992C369.768 146.32 353.896 146.32 344.224 155.992Z" fill="#FF9D00"/>
</svg>

