<svg width="53" height="53" viewBox="0 0 53 53" fill="none" xmlns="http://www.w3.org/2000/svg">
<path d="M42.4446 9.09458H31.6534V46.6223C31.6534 48.786 31.1974 50.3893 30.2852 51.4321C29.3731 52.475 28.1994 52.9999 26.7508 52.9999C25.282 52.9999 24.0882 52.475 23.1694 51.418C22.2505 50.3609 21.7878 48.7648 21.7878 46.6223V9.09458H10.9966C9.30644 9.09458 8.05227 8.7044 7.23405 7.91696C6.40911 7.12242 6 6.08668 6 4.79555C6 3.45477 6.42923 2.39775 7.28099 1.62449C8.13276 0.851235 9.37351 0.46106 10.9966 0.46106H42.4446C44.1549 0.46106 45.4292 0.858329 46.2608 1.65996C47.0924 2.46159 47.5083 3.50443 47.5083 4.79555C47.5083 6.08668 47.0857 7.12951 46.2407 7.91696C45.4023 8.69731 44.1347 9.09458 42.4446 9.09458Z"/>
</svg>

