<svg width="175" height="53" viewBox="0 0 175 53" fill="none" xmlns="http://www.w3.org/2000/svg">
<g clip-path="url(#clip0_70_66)">
<path d="M36.4446 9.09463H25.6534V46.6224C25.6534 48.7861 25.1974 50.3894 24.2852 51.4322C23.3731 52.475 22.1994 53 20.7508 53C19.282 53 18.0882 52.475 17.1694 51.418C16.2505 50.361 15.7878 48.7648 15.7878 46.6224V9.09463H4.99655C3.30644 9.09463 2.05227 8.70446 1.23405 7.91701C0.409114 7.12247 0 6.08674 0 4.79561C0 3.45483 0.429234 2.39781 1.28099 1.62455C2.13276 0.851292 3.37351 0.461117 4.99655 0.461117H36.4446C38.1549 0.461117 39.4292 0.858386 40.2608 1.66002C41.0924 2.46165 41.5083 3.50448 41.5083 4.79561C41.5083 6.08674 41.0857 7.12957 40.2407 7.91701C39.4023 8.69736 38.1348 9.09463 36.4446 9.09463Z" fill="#FF9D00"/>
<path d="M50.3412 13.8831C49.0065 13.8831 47.9268 14.3655 47.0951 15.3303C46.2635 16.2951 45.8477 17.7281 45.8477 19.6294V47.1474C45.8477 49.0273 46.2635 50.4745 47.0951 51.4819C47.9268 52.4892 49.0133 53 50.3412 53C51.6691 53 52.7758 52.5034 53.6409 51.5173C54.5061 50.5313 54.942 49.077 54.942 47.1474V19.3456C54.942 17.6288 54.5061 16.2951 53.6409 15.3303C52.7691 14.3655 51.6691 13.8831 50.3412 13.8831Z" fill="#FF9D00"/>
<path d="M70.7564 19.8777L78.1205 41.7275L86.0479 18.9271C86.6716 17.0968 87.2819 15.7986 87.8788 15.0324C88.4757 14.2662 89.3879 13.8902 90.6085 13.8902C91.7621 13.8902 92.7479 14.3017 93.5595 15.1246C94.371 15.9475 94.7734 16.8981 94.7734 17.9764C94.7734 18.4021 94.6996 18.8916 94.5588 19.4591C94.4112 20.0195 94.2503 20.5516 94.0558 21.0482C93.868 21.5448 93.6534 22.1052 93.4052 22.7366L84.6797 45.6434C84.4315 46.3032 84.1163 47.1332 83.7273 48.1476C83.3383 49.1621 82.9024 50.0205 82.4262 50.737C81.95 51.4535 81.3598 52.0139 80.6623 52.4112C79.9648 52.8085 79.1131 53.0071 78.1138 53.0071C76.8261 53.0071 75.7999 52.695 75.0353 52.0707C74.2708 51.4464 73.7007 50.7654 73.3385 50.0276C72.9697 49.2898 72.3593 47.8284 71.4875 45.6434L62.829 22.9778C62.6278 22.4173 62.4266 21.8498 62.212 21.2894C62.0041 20.729 61.823 20.1472 61.6821 19.5655C61.5346 18.9767 61.4675 18.473 61.4675 18.0474C61.4675 17.3876 61.6553 16.735 62.0309 16.0894C62.4065 15.4438 62.9296 14.9118 63.5936 14.5003C64.2575 14.0889 64.9819 13.8831 65.7599 13.8831C67.2689 13.8831 68.3084 14.3443 68.8718 15.2594C69.4419 16.1745 70.0723 17.714 70.7564 19.8777Z" fill="#FF9D00"/>
<path d="M125.792 35.8039H107.999C108.019 37.9889 108.435 39.9114 109.247 41.5856C110.058 43.2598 111.131 44.5084 112.479 45.3526C113.821 46.1968 115.303 46.6224 116.926 46.6224C118.012 46.6224 119.005 46.4876 119.91 46.218C120.809 45.9485 121.681 45.5228 122.526 44.9482C123.371 44.3736 124.149 43.7564 124.86 43.0966C125.571 42.4369 126.49 41.543 127.623 40.4151C128.093 39.9894 128.757 39.7837 129.622 39.7837C130.554 39.7837 131.312 40.0533 131.889 40.5924C132.466 41.1316 132.754 41.8977 132.754 42.8838C132.754 43.7493 132.432 44.7708 131.788 45.9343C131.144 47.0977 130.172 48.2115 128.871 49.2827C127.57 50.3539 125.94 51.2407 123.975 51.943C122.01 52.6453 119.749 53 117.194 53C111.353 53 106.812 51.2407 103.566 47.7149C100.32 44.1891 98.7036 39.4077 98.7036 33.3706C98.7036 30.5259 99.106 27.894 99.9041 25.4607C100.702 23.0274 101.869 20.9418 103.405 19.2037C104.934 17.4657 106.826 16.132 109.066 15.2027C111.306 14.2733 113.794 13.8122 116.53 13.8122C120.085 13.8122 123.13 14.6067 125.678 16.1887C128.22 17.7778 130.125 19.8209 131.392 22.3393C132.66 24.8506 133.29 27.4116 133.29 30.0222C133.29 32.4413 132.633 34.0091 131.325 34.7256C130.018 35.4421 128.173 35.8039 125.792 35.8039ZM108.006 30.3415H124.498C124.277 27.0498 123.438 24.5952 121.983 22.9565C120.527 21.3249 118.609 20.509 116.235 20.509C113.968 20.509 112.11 21.339 110.655 22.992C109.2 24.652 108.314 27.0995 108.006 30.3415Z" fill="#FF9D00"/>
<path d="M175 33.4416C175 36.3076 174.577 38.9537 173.732 41.3728C172.887 43.7919 171.667 45.8704 170.07 47.6085C168.474 49.3465 166.563 50.6802 164.343 51.6096C162.123 52.5389 159.621 53 156.845 53C154.088 53 151.613 52.5318 149.414 51.5883C147.214 50.6448 145.309 49.304 143.699 47.5517C142.09 45.7995 140.869 43.7351 140.038 41.3515C139.206 38.9679 138.79 36.3289 138.79 33.4416C138.79 30.5259 139.213 27.8585 140.058 25.4394C140.903 23.0203 142.11 20.956 143.693 19.2392C145.269 17.5224 147.18 16.2029 149.42 15.2736C151.66 14.3443 154.142 13.8831 156.851 13.8831C159.608 13.8831 162.103 14.3514 164.35 15.2949C166.59 16.2384 168.514 17.5721 170.111 19.3101C171.707 21.0482 172.928 23.1126 173.759 25.5104C174.584 27.9082 175 30.5543 175 33.4416ZM165.872 33.4416C165.872 29.5185 165.054 26.461 163.424 24.2831C161.794 22.0981 159.601 21.0056 156.845 21.0056C155.067 21.0056 153.505 21.4951 152.15 22.467C150.795 23.446 149.749 24.879 149.018 26.7802C148.287 28.6814 147.918 30.9019 147.918 33.4416C147.918 35.9529 148.28 38.1521 148.998 40.032C149.722 41.9119 150.755 43.352 152.096 44.3452C153.438 45.3455 155.02 45.8421 156.845 45.8421C159.601 45.8421 161.794 44.7425 163.424 42.5504C165.054 40.3512 165.872 37.315 165.872 33.4416Z" fill="#FF9D00"/>
</g>
<defs>
<clipPath id="clip0_70_66">
<rect width="175" height="53" fill="white"/>
</clipPath>
</defs>
</svg>

